<?xml version="1.0" encoding="UTF-8"?>
<svg version="1.1" viewBox="0 0 1600 1000" width="1280" height="1280" xmlns="http://www.w3.org/2000/svg">
<path transform="translate(0)" d="m0 0h1600v1e3h-1600v-1e3z" fill="#FDFDFD"/>
<path transform="translate(1289 305)" d="m0 0c13 13.7 18.4 32 19 50.6-0.547 17.4-6.13 35.5-14.1 50.9-0.452 0.883-0.452 0.883-0.913 1.78-7.34 14.1-16.6 26.4-28.2 37.2-2.55 2.41-4.55 4.36-6.07 7.55 0.312 3.71 2.39 5.98 4.64 8.78 13.2 17.5 18.6 35.5 16 57.4-3.21 22-16.4 41.3-32.5 56.2-0.804 0.804-1.61 1.61-2.44 2.44-0.846 0.846-1.69 1.69-2.56 2.56-0.491 0.538-0.982 1.08-1.49 1.63-19.3 20.4-46.6 35.7-72.3 46.4-2.43 1.03-4.84 2.1-7.26 3.18-15.5 6.89-31.2 13-47.1 19-1.29 0.489-2.58 0.98-3.87 1.47-9.88 3.77-19.8 7.3-29.9 10.6-1.05 0.351-1.05 0.351-2.13 0.709-11 3.66-22 7.09-33.2 10.3-5.94 1.71-11.7 3.6-17.5 5.8-3.24 1.15-5.92 1.77-9.37 1.84-2.11-1.55-2.9-2.46-3.39-5.06-0.00338-0.789-0.00677-1.58-0.0103-2.39-0.00612-0.9-0.0122-1.8-0.0186-2.73 0.0139-0.974 0.0277-1.95 0.042-2.95 0.0087-1.01 0.0174-2.02 0.0264-3.07 0.286-15.3 1.6-30.9 6.34-45.6 0.906-2.91 1.59-5.81 2.21-8.79 4.39-20.7 12.6-41 20.8-60.5 0.571-1.36 0.571-1.36 1.15-2.75 1.19-2.84 2.39-5.67 3.6-8.5 0.365-0.858 0.73-1.72 1.11-2.6 1.91-4.45 3.95-8.8 6.14-13.1 1.47-2.98 2.77-6.03 4.09-9.08 3.96-9.08 8.36-17.5 13.6-25.9 1.43-2.3 2.81-4.62 4.19-6.95 5.31-9 10.7-17.8 16.8-26.3 2.66-3.78 5.24-7.61 7.83-11.4 3.37-4.95 6.75-9.87 10.3-14.7 3.95-5.35 7.65-10.9 11.4-16.4 4.67-6.89 9.4-13.7 14.4-20.4 0.472-0.636 0.944-1.27 1.43-1.93 2.74-3.63 5.67-6.84 8.94-10 0.576-0.634 1.15-1.27 1.75-1.92 10.9-11.8 25.7-19.6 41.9-20.4 3.11 0.0525 4.21 0.21 6.94 1.88 1.99 3.37 1.76 5.56 1.44 9.44-1.47 3.36-1.47 3.36-3.5 6.75-0.364 0.609-0.728 1.22-1.1 1.85-3.47 5.72-7.35 11.1-11.4 16.4-1.9 2.52-3.79 5.04-5.69 7.56-0.507 0.674-1.01 1.35-1.54 2.04-9.02 12-17.8 24.2-26.2 36.7-1.61 2.36-3.23 4.69-4.88 7.02-4.63 6.54-8.79 13.2-12.8 20.1-2.99 5.16-6.16 10.2-9.44 15.1-19.7 30.1-34.8 64.3-43.6 99.2-0.721 2.8-1.55 5.5-2.46 8.24-1.66 5.39-2.28 10.9-2.95 16.5-0.39 3.19-0.876 6.35-1.43 9.52 4.89-0.383 9.24-1.29 13.9-2.77 1.15-0.361 2.3-0.721 3.48-1.09 1.19-0.377 2.37-0.753 3.59-1.14 1.12-0.354 2.24-0.707 3.4-1.07 17.9-5.68 35.1-12.2 52.3-19.6 3.3-1.37 6.62-2.66 9.97-3.93 5.6-2.13 11.1-4.45 16.6-6.93 1.23-0.547 1.23-0.547 2.48-1.11 15.4-6.94 31.3-15.3 38.6-31.1 2.32-6.34 2.94-13.1 0.895-19.6-0.949-2.03-2.01-3.82-3.27-5.67-0.701-1.03-1.4-2.06-2.12-3.12-8.17-9.17-20.3-11.9-32-12.7-2.12-0.116-4.23-0.23-6.35-0.344-1.02-0.067-2.04-0.134-3.1-0.203-1.37-0.0735-1.37-0.0735-2.77-0.148-3.05-0.557-5.06-1.75-7.61-3.48 1.72-14.3 5.7-27.5 17.3-36.7 3.81-2.9 7.74-5.63 11.7-8.32 0.921-0.636 0.921-0.636 1.86-1.28 5.88-4.04 11.6-7.68 18.3-10.3 6.42-2.5 11.5-6.08 16.8-10.4 0.709-0.571 1.42-1.14 2.15-1.73 8.91-7.98 16.8-21.9 18.1-33.8 0.141-2.75 0.173-5.48 0.142-8.23-0.0105-0.972-0.0209-1.94-0.0317-2.95-0.369-14.6-6.17-26-16.4-36.3-14.5-11.6-34-14.7-52-13-20.4 2.33-40.7 5.86-60 13-1.06 0.387-1.06 0.387-2.14 0.781-10.3 3.85-20.4 8.46-26 18.3-4.08 9.2-3.27 28.3-0.214 37.9 0.673 3.67-1.95 6.56-3.88 9.54-0.452 0.708-0.903 1.42-1.37 2.14-4.46 6.8-9.6 12.7-15.4 18.4-1.05 1.05-1.05 1.05-2.12 2.12-6.35 5.96-14.3 10.3-22.9 11.9-4.96-0.261-8.83-1.25-13-4-3.52-4.77-3.82-10.4-4.57-16.2-0.272-2.77-0.272-2.77-1.43-4.83-2.47-0.294-4.84-0.469-7.31-0.562-1.47-0.0673-2.94-0.136-4.41-0.207-0.728-0.0343-1.46-0.0686-2.21-0.104-2.79-0.17-5.55-0.534-8.32-0.876-8.45-0.712-17 1.29-24 6.21-6.79 6.05-10.1 15.2-13.8 23.3-1.63 3.55-3.39 7.01-5.2 10.5-2.52 4.98-4.21 9.98-5.7 15.4-0.864 2.78-1.84 5.38-2.95 8.07-2.26 5.55-4 11.2-5.67 17-0.456 1.56-0.456 1.56-0.92 3.16-2.11 7.4-3.77 14.8-5.01 22.4-0.508 2.85-0.508 2.85-1.51 4.85-0.267 3.18-0.232 6.37-0.25 9.56-0.0206 0.869-0.0412 1.74-0.0625 2.63-0.0588 9.85 2.6 17.5 9.31 24.8 4.71 4.07 9.79 6.01 16 6 8.31-1.88 15.8-5.11 22-11 0.629-0.589 1.26-1.18 1.91-1.79 5.26-5.41 8.89-11.6 12.5-18.2 3.98-7.12 9.06-12.6 16.6-16 3.1-0.704 4.74-0.543 8 0 3.38 2.7 3.92 4.41 4.5 8.69-0.205 4.36-1.82 7.92-3.56 11.9-0.89 2.32-1.22 4.11-1.38 6.57-0.616 4.24-1.82 6.29-4.18 9.75-1.46 2.24-2.61 4.52-3.76 6.93-11.8 24-31.6 43.5-56.6 53.2-23.2 7.72-42.8 9.65-65.1-1.25-5.8-3.31-8.91-6.83-11.9-12.8-0.409-0.776-0.817-1.55-1.24-2.35-0.958-1.86-1.87-3.75-2.76-5.65-3.33 0.573-4.73 1.47-6.94 4-12.9 13.4-32 21.5-50.6 22.5-15.7-0.941-31.1-7.24-41.6-18.9-5.59-11-4.15-24.1-0.812-35.6 2.58-7.18 5.82-14.1 9-21 0.747-1.67 1.49-3.34 2.24-5 6.38-14.1 13.7-27.2 24.1-38.7 1.87-2.7 1.97-4.11 1.62-7.33h-2c-0.536-0.681-1.07-1.36-1.62-2.06-2.54-3.14-5.28-5.56-8.36-8.16-1.86-1.64-3.44-3.36-5.07-5.22-2.74-2.79-2.74-2.79-6.31-3.38-7.32 1.64-11.4 7.04-15.4 13.1-8.91 15.2-17 33.9-19 51.5-3.14 19.5-15.2 36-28.2 50.2-0.63 0.713-1.26 1.43-1.91 2.16-17.1 18.3-41.7 30.8-66.9 31.9-9.63-0.0704-17.7-2.89-25.2-9.02-5.9-7.51-10.7-17.3-10-27-3.12-1.42-3.12-1.42-6.48 0.555-1.43 0.762-2.85 1.54-4.27 2.32-0.759 0.408-1.52 0.817-2.3 1.24-4.31 2.34-8.5 4.82-12.6 7.44-12.5 7.88-27.6 14.4-42.7 12.1-9.78-2.37-19.9-9.1-25.4-17.6-0.596-1.03-0.596-1.03-1.2-2.08-0.459-0.759-0.918-1.52-1.39-2.3-3.52-6.34-4.78-12.5-5.61-19.7-3.65 2.02-6.39 4.19-9.27 7.21-0.799 0.827-1.6 1.65-2.42 2.51-0.845 0.877-1.69 1.75-2.56 2.66-8.14 8.3-16.5 15.7-26 22.4-1.49 1.06-2.96 2.15-4.43 3.24-8.35 6.01-16.2 7.25-26.4 7.42-0.839 0.0224-1.68 0.0448-2.54 0.0679-8.53-0.0317-15.6-3.02-21.9-8.81-7.02-7.91-7.99-18.6-7.5-28.7 0.437-3.92 1.07-7.8 1.75-11.7 0.183-1.06 0.365-2.12 0.553-3.21 1.46-8.2 3.2-16.2 5.7-24.1 0.22-0.714 0.439-1.43 0.666-2.17 4.07-13 9.61-25.2 15.7-37.4 4.79-8.36 4.79-8.36 4.67-17.4-4.71 0.515-7.74 1.77-11.7 4.38-0.932 0.606-1.86 1.21-2.82 1.84-2.46 1.66-2.46 1.66-4.2 3.52-1.29 1.27-1.29 1.27-3.29 1.27-0.262 0.592-0.525 1.18-0.795 1.79-1.26 2.31-2.56 3.7-4.48 5.49-3.57 3.47-6.46 7.13-9.29 11.2-0.505 0.723-1.01 1.45-1.53 2.19-9.07 13.2-17.1 27.1-25 41-5.87 10.4-12.3 20.4-18.9 30.3-0.397 0.591-0.794 1.18-1.2 1.79-5.97 8.81-14.6 21.4-25.9 23.6-4.66 0.221-7.99-1.04-11.9-3.4v-2c-0.99-0.33-1.98-0.66-3-1-5.93-9.47-4.73-19.9-2.38-30.2 2.08-8.52 5.05-16.6 8.38-24.8l1.44-3.55c4.25-10.2 9.27-20 14.3-29.8 1.61-3.15 3.21-6.3 4.8-9.46 0.645-1.27 1.29-2.54 1.94-3.81 0.922-1.8 1.83-3.6 2.75-5.4 0.536-1.05 1.07-2.1 1.62-3.18 1.42-2.89 1.42-2.89 1.16-6.77-14.8 2.16-30.7 24-39.2 35.2-0.928 1.25-1.86 2.5-2.78 3.76-0.519 0.696-1.04 1.39-1.57 2.11-12.2 16.4-22.6 33.7-32.9 51.3-3.46 5.88-6.95 11.7-10.5 17.6-0.54 0.888-0.54 0.888-1.09 1.79-17.3 28.4-17.3 28.4-31.9 33.2-7.49 0.5-12.7-1.04-18.8-5.69-4.51-4.15-5.91-8.16-6.56-14.2-0.235-5.99 0.448-11.3 2.05-17.1 0.178-0.646 0.355-1.29 0.538-1.96 1.46-5.27 3.02-10.5 4.58-15.8 4.59-15.5 8.57-31 12-46.7 0.189-0.877 0.377-1.75 0.571-2.66 0.898-4.19 1.79-8.38 2.68-12.6 5.3-24.9 5.3-24.9 9.73-35.3 1.03-2.62 1.84-5.17 2.61-7.88 7.21-24.5 23.2-44.6 44.6-58.2 4.22-1.94 7.33-2.41 12-2 3.61 1.46 6.56 2.93 9 6-0.879 8.08-4.61 14.8-8.25 21.9-7.78 15.7-13.1 30.8-15.8 48.1h2v2c5.19-2.62 8.81-6.63 12.8-10.8 4.61-4.72 9.27-9.25 14.3-13.6 3.06-2.71 5.88-5.64 8.73-8.57 5.75-5.82 11.7-11.1 18.2-16.1 1.11-0.905 2.21-1.81 3.31-2.72 40.5-33.2 40.5-33.2 58.2-31.8 5.57 1.17 8.24 3.94 11.3 8.52 4.65 7.7 4.11 17.4 2.38 26-0.867 3.41-2.31 6.02-4.19 9v4c7.44-4.13 14.7-8.31 21.6-13.3 5.2-3.68 10.7-7 16.1-10.4 6.65-4.16 13-8.63 19.4-13.2 4.24-3.05 7.19-4.56 12.3-5.64 3.34-0.715 6.54-1.45 9.77-2.57 6.32-2.03 12.7-1.96 18.7 1.07 5 3.17 10.3 7.53 11.9 13.4 1.77 14.1-1.4 24.2-9.67 35.6-0.575 0.687-1.15 1.37-1.74 2.08-5.67 6.79-10 14-14.2 21.8-0.346 0.634-0.692 1.27-1.05 1.92-5.91 10.8-11.3 21.8-16 33.2-0.498 1.19-0.995 2.39-1.51 3.62-7.06 16-7.06 16-6.62 32.8 1.04 1.78 1.04 1.78 3.12 2.62 5.11 0.854 9.08 0.385 13.5-2.38 8.2-6.11 14-14.2 19.8-22.5 4.27-6.08 8.73-11.9 14.7-16.4 3.39-2.78 4.78-6.13 6.29-10.2 3.34-8.22 7.64-15.3 12.7-22.6 0.396-0.58 0.792-1.16 1.2-1.76 6.08-8.89 12.7-17.1 19.8-25.2 1.06-1.29 2.13-2.58 3.19-3.88 2.6-3.04 5.52-5.6 8.59-8.16 1.93-1.71 3.7-3.47 5.5-5.32 3.53-3.56 7.31-6.57 11.3-9.52 0.697-0.515 1.39-1.03 2.11-1.56 2.08-1.53 4.17-3.05 6.26-4.57 0.587-0.426 1.17-0.853 1.78-1.29 16.4-11.8 34.7-22.2 54.2-27.7 0.728-0.213 1.46-0.425 2.21-0.645 17.8-4.59 37.5-2.08 55.2 1.52 0.75 0.149 1.5 0.298 2.27 0.452 6.24 1.38 12 3.55 16.7 7.92 2.52 4.43 3.18 8.17 2 13.1-6.37 17.6-19.4 29.1-35.4 37.7-5.21 1.74-10.7 1.19-16.2 1.19-1.9-0.00121-1.9-0.00121-3.83-0.00244-11.4-0.0742-22.1-0.528-33-4.19-13.9-1.37-28.5 3.64-39.5 11.9-7.23 6.03-12.3 13.3-17.5 21.1-0.589 0.856-1.18 1.71-1.79 2.59-7.85 12.1-14.2 31-12.2 45.4 1.05 4.13 2.43 8.04 4 12 0.3 0.803 0.601 1.61 0.91 2.43 1.63 3.85 2.71 5.33 6.34 7.63 7.85 1.96 14.7-0.482 21.8-4.06 11-6.83 19.1-17.7 26.9-27.8 3.71-4.79 7.67-9.26 11.8-13.7 1.97-2.13 3.88-4.3 5.77-6.51 6.83-7.82 14.1-14.8 22.5-20.9 0.935-0.705 1.87-1.41 2.83-2.14 7.38-5.5 12.8-8.96 22.2-7.86 4.23 1.75 6.01 3.92 8 8 1.61 3.96 0.369 7.3-0.875 11.2-0.223 0.702-0.447 1.4-0.677 2.13-4.2 12.5-11.4 23.7-18.1 35-5.6 9.35-9.46 18.5-8.36 29.7 0.959 2.02 1.96 4.02 3 6 13.6 0.785 13.6 0.785 26-4 0.755-0.412 1.51-0.825 2.29-1.25 6.91-4.07 12.2-10.1 14.7-17.8 0.0254-2.21-0.0102-4.42-0.0781-6.62-0.0317-1.35-0.0614-2.7-0.0894-4.05-0.0146-0.706-0.0293-1.41-0.0444-2.14-0.332-19 3.35-33.7 10.4-51.2 1.24-3.09 2.46-6.19 3.69-9.29 5.69-14.4 11.5-28.7 18.1-42.7 0.345-0.734 0.69-1.47 1.05-2.22 8.58-18.1 19.1-33.3 38-41.8 6.12-1.98 12.6-0.827 18.5 1.44 2.44 1.62 2.44 1.62 4.44 4.62-0.0508 2.14-0.0508 2.14-0.312 4.69-0.162 10.2 5.06 20.2 11.6 27.8 1.53 1.53 3.09 3.04 4.69 4.5 0.749 0.705 1.5 1.41 2.27 2.14 9.84 8.56 20.7 13.6 33.8 13.7 2.97 0.171 4.51 0.461 6.93 2.17 1.23 1.8 1.23 1.8 2.19 3.88 0.324 0.678 0.647 1.36 0.98 2.05 3.19 7.94 3.27 18.3 0.809 26.5-6.19 13-17.3 23.4-27.1 33.9-12.1 13.1-25.1 29.4-25.3 47.9 0.27 2.23 0.27 2.23 3.4 3.81 8.98 1.1 18.1 0.128 25.7-5.17 4.97-3.94 8.14-8.57 11.4-14 0.52-0.844 1.04-1.69 1.58-2.56 6.34-10.4 11.1-20.9 15.4-32.3 3.29-8.49 6.76-16.8 10.6-25 1.15-2.51 2.15-5 3.1-7.58 5.7-14.6 14.3-28.1 22.5-41.4 0.836-1.35 1.67-2.7 2.5-4.05 0.776-1.26 1.56-2.52 2.35-3.78 2.46-4.02 3.81-7.66 4.92-12.2h-2v-2c-0.99 0.33-1.98 0.66-3 1-0.66-0.33-1.32-0.66-2-1-3.31-0.484-6.62-0.897-9.93-1.3-3.18-0.721-4.22-1.08-6.07-3.7-1.73-3.34-2.19-6.25-2-10 3.45-9.52 8.68-17.1 17-23 1.02-0.733 1.02-0.733 2.07-1.48 7.04-4.7 13.2-6.71 21.6-6.63 8.04 0.0413 8.04 0.0413 15.1-3.32 3.11-3.94 5.03-8.5 7.06-13.1 2.13-4.44 4.86-8.48 7.58-12.6 0.546-0.834 1.09-1.67 1.65-2.53 3.67-5.57 7.46-11 11.4-16.4 0.472-0.652 0.943-1.3 1.43-1.98 5.38-7.16 11.5-9.77 19.9-12.1 0.851-0.251 1.7-0.503 2.58-0.762 8.5-2.47 16.9-4.3 25.7-5.24 0.77-0.0864 1.54-0.173 2.33-0.262 1.87-0.209 3.74-0.412 5.6-0.613 0.832 2 0.832 2 1 5-1.43 2.91-3.36 5.42-5.31 8-0.551 0.755-1.1 1.51-1.67 2.29-4.05 5.52-8.24 10.9-12.4 16.3-14 15.9-14 15.9-22.6 33.4 10.9-0.215 26.3-0.807 34.7-8.43 1.96-2.78 3.63-5.63 5.32-8.57 5.65-7.02 12.1-13.3 19-19 0.54-0.451 1.08-0.903 1.64-1.37 32.1-26.4 76.9-43.1 117-50.6 1.44-0.275 1.44-0.275 2.91-0.555 31-4.47 69-2.11 93.2 20.1z" fill="#000100"/>
<path transform="translate(797,489)" d="m0 0c2.35 1.86 4.11 3.48 6.06 5.69 0.988 1.07 1.98 2.14 2.97 3.2 0.481 0.523 0.962 1.05 1.46 1.58 1.54 1.57 3.16 2.93 4.88 4.3 1.3 1.1 1.3 1.1 2.63 2.23v2h2c0.746 2.19 0.746 2.19 1 5-1.59 2.44-1.59 2.44-3.94 5-5.13 5.94-9.19 12.2-13.1 19-0.345 0.6-0.69 1.2-1.05 1.82-12.8 22.5-25.5 46.8-20 73.2 1.12 2.4 2.29 3.95 4 6v2c0.523 0.259 1.05 0.518 1.59 0.785 1.85 0.929 3.68 1.88 5.52 2.84 18.3 9.43 33.2 11.1 52.9 5.38 11.9-3.95 20.8-10.6 29.8-19.2 2.18-1.78 3.47-2.43 6.23-2.82 3.22 5.25 6.46 10.6 9.01 16.2 1.42 2.55 3.31 2.72 5.99 3.78 3.63 3.12 5.39 5.56 7 10 2.08 4.09 4.37 8.03 6.86 11.9 9.71 15.1 14.2 29.6 16.7 47.3 0.293 1.92 0.636 3.83 1.02 5.73 1.53 7.72 1.25 14.5 0.222 22.3-0.148 1.18-0.296 2.37-0.448 3.59-0.436 3.41-0.899 6.82-1.36 10.2-0.198 1.61-0.396 3.22-0.594 4.83-2.01 14.7-7.98 28.4-15.4 41.2-0.808 1.4-0.808 1.4-1.63 2.83-19.6 31.8-52.5 53.5-88.6 62.4-11.9 2.43-23.7 3.16-35.8 2.78-1.22-0.018-2.45-0.0361-3.71-0.0547-21.1-0.752-42.2-10.9-59.3-22.9-0.568-0.398-1.14-0.795-1.72-1.2-4.13-2.89-8.22-5.81-12.3-8.8-0.941-0.656-1.88-1.31-2.85-1.99-2.48-2.33-2.87-3.67-3.15-7.01 1.49-0.744 2.98-1.49 4.47-2.23 1.4-0.698 2.79-1.4 4.18-2.1 4.25-2.14 8.52-4.24 12.8-6.31 12.6-6.13 24.7-12.8 36.6-20.1 1.08-0.654 2.15-1.31 3.26-1.98 0.947-0.583 1.89-1.17 2.87-1.77 6.27-3.4 10.9-3.94 17.8-2.51 2.19 0.72 4.34 1.49 6.47 2.38 7.27 1.78 13.9 0.352 20.9-1.94l2.51-0.81c6.73-2.28 12.4-5.31 18.1-9.63 1.03-0.722 2.06-1.44 3.12-2.19 11.9-10.6 19-26.2 20.9-41.8 0.0296-3.44-0.382-6.63-1-10-0.126-0.905-0.253-1.81-0.383-2.74-2.54-16.7-12.7-29.9-24.7-41.2-2.91-1.6-4.6-1.63-7.87-1.03-2.21 2.18-3.89 4.14-5.69 6.62-0.515 0.676-1.03 1.35-1.56 2.05-1.6 2.1-3.17 4.21-4.75 6.33-1.86 2.45-3.74 4.89-5.62 7.31-0.447 0.576-0.894 1.15-1.35 1.75-3.63 4.61-7.57 8.71-11.8 12.8-2.26 2.17-2.26 2.17-4.26 4.77-1.69 2.11-3.28 3.72-5.37 5.41-3.56 2.97-6.84 6.15-10 9.55-5.3 5.56-11.3 9.97-17.6 14.4-0.654 0.477-1.31 0.953-1.98 1.44-14.3 10.4-29.1 19-45 26.6l-1.88 0.902c-28.5 13.5-60 20.6-91.1 25.1-0.685 0.104-1.37 0.208-2.08 0.315-7.52 0.997-15.1 0.884-22.7 0.873-1.1-9.06e-4 -1.1-9.06e-4 -2.22-0.00183-12.1-0.027-24-0.456-36-2.19-0.86-0.124-1.72-0.247-2.61-0.375-62-9.31-121-40.7-164-85.6-2.43-2.45-4.88-4.88-7.36-7.29-16.9-16.5-30.3-36.2-41.1-57.1-0.508-0.957-0.508-0.957-1.03-1.93-2.3-4.57-3.07-8.53-3.47-13.6 0.99-0.33 1.98-0.66 3-1 0.557 0.309 1.11 0.619 1.69 0.938 3.53 1.62 6.57 1.89 10.3 1.06 3.69-1.92 6.81-4.35 10-7 0.657-0.532 1.31-1.06 1.99-1.61 15-13.6 25.1-35.4 34.9-52.8 7.49-13.2 15.3-26.1 24.4-38.3 0.467-0.631 0.935-1.26 1.42-1.91 2.97-3.91 6.19-7.4 9.71-10.8 1.33-1.3 2.61-2.66 3.87-4.02 5.14-4.78 11-9.28 17.7-11.5 2.31 0.375 2.31 0.375 4 1 1.45 4.61 0.456 7.01-1.61 11.3-0.28 0.593-0.561 1.19-0.85 1.8-0.898 1.89-1.81 3.77-2.73 5.66-0.598 1.25-1.2 2.5-1.79 3.75-1.15 2.42-2.31 4.84-3.47 7.26-11.3 23.6-24.5 58.3-16.5 84.6 2.59 6.95 6.3 12.1 13 15.6 9.27 3.95 24.3 3.78 33.7 0.215 5.49-2.87 10.4-6.46 15.3-10.2 0.606-0.456 1.21-0.913 1.84-1.38 9.75-7.41 18.4-15.6 27-24.4 0.766-0.788 1.53-1.58 2.32-2.39 0.678-0.708 1.36-1.42 2.06-2.15 1.83-1.65 1.83-1.65 4.83-2.65 1.68 1.68 1.41 4.01 1.69 6.31 1.56 9.75 6.08 19.6 13.9 26 1.71 1.22 3.45 2.35 5.23 3.47l1.75 1.17c7.81 4.99 16.2 6.17 25.3 4.58 12.4-2.81 23.1-8.98 34-15.2 1.8-1.02 3.6-2.03 5.4-3.05 1.62-0.91 3.24-1.83 4.85-2.74 2.58-1.37 5.14-2.5 7.87-3.52v2h2c0.147 0.727 0.294 1.45 0.445 2.2 2.35 10.6 5.79 21 14.9 27.5 12.6 7.35 25.6 5.93 39.3 2.4 17.1-5.24 31.1-14.2 44.4-26.1 0.789-0.687 1.58-1.37 2.39-2.08 15.1-14.1 28.1-35.4 30.4-56 1.27-9.79 5.49-18.8 9.19-27.9 0.538-1.36 1.08-2.72 1.61-4.07 12.7-31.2 12.7-31.2 27.4-28.9z" fill="#D1E593"/>
<path transform="translate(882 198)" d="m0 0c1.96 1.93 3.01 3.48 4.04 6.01-3.67 3.16-7.29 5.27-11.7 7.32-1.31 0.619-2.62 1.24-3.93 1.86-0.678 0.318-1.36 0.636-2.06 0.964-13.6 6.4-27.1 12.9-39.3 21.7-11.8 8.44-11.8 8.44-18.4 7.72-3.12-0.672-6.22-1.39-9.32-2.12-13.6-3.1-27.4-0.543-39.6 6.38-15.2 9.84-24.6 25-28.6 42.5-2.9 16.1 1.43 29.7 9.94 43.7 4.66 6.07 10.8 13.8 18 17 2.52 0.158 2.52 0.158 5-1 1.79-1.94 3.25-3.74 4.75-5.88 0.884-1.2 1.77-2.4 2.66-3.59 0.438-0.599 0.877-1.2 1.33-1.82 5.88-7.97 12.5-15.2 19.3-22.4 2.64-2.79 5.23-5.57 7.66-8.55 1.89-2.26 3.68-4.12 5.93-6 2.28-1.93 4.5-3.87 6.67-5.93 15.4-14.6 33.2-25.6 51.7-35.8 0.717-0.399 1.43-0.798 2.17-1.21 34.9-19.2 77-30.8 117-33.8 1.21-0.0984 1.21-0.0984 2.44-0.199 14.7-1.14 28.9-0.477 43.6 1.2 0.842 0.0927 1.68 0.185 2.55 0.281 41.6 4.77 109 24.3 137 57.9 1.21 1.95 1.63 3.6 2.14 5.82-4.47 1.74-8.93 3.31-13.5 4.7-19.2 5.88-36.7 14.1-54.5 23.3-0.931 0.481-1.86 0.961-2.82 1.46-9.02 4.72-17.2 10.2-25.2 16.5-0.873 0.669-1.75 1.34-2.64 2.03-10.1 7.83-19.4 16.8-25.5 28.1-2.97 3-6.68 3.56-10.7 4.53-1.27 0.321-1.27 0.321-2.56 0.649-6.85 1.66-13.5 2.52-20.6 2.66-0.33-0.66-0.66-1.32-1-2 8.54-13.2 17.8-25.8 27.2-38.3 3.72-4.94 7.42-9.9 11-14.9 0.727-1.02 1.45-2.03 2.2-3.08 1.88-2.73 1.88-2.73 1.55-6.67-1.88 0.143-3.75 0.289-5.62 0.438-1.04 0.0812-2.09 0.162-3.16 0.246-7.43 0.732-14.4 2.63-21.6 4.63-1.65 0.444-1.65 0.444-3.33 0.896-9.24 2.56-16.4 4.61-22.2 12.6-0.415 0.566-0.83 1.13-1.26 1.72-1.31 1.81-2.59 3.64-3.87 5.47-0.415 0.593-0.831 1.19-1.26 1.8-4.99 7.17-9.58 14.5-14 22.1-0.646 1.08-0.646 1.08-1.31 2.18-1.76 2.96-3.37 5.76-4.67 8.95-1.24 2.78-2.42 4.08-4.78 6-2.22 0.611-2.22 0.611-4.68 0.836-0.898 0.0892-1.8 0.178-2.72 0.27-2.84 0.206-5.67 0.373-8.51 0.531-11.1 0.646-20.8 6.45-28.2 14.7-4.02 5.58-8.65 12.4-9.1 19.5 0.65 3.6 1.59 5.6 4.18 8.19 3.56 1.19 6.89 1.54 10.6 1.82 2.52 0.194 4.92 0.61 7.38 1.18v2h2c-0.427 6.14-2.46 10.1-5.69 15.3-0.684 1.13-0.684 1.13-1.38 2.28-1.3 2.14-2.61 4.27-3.93 6.41-8.89 14.6-17.8 29.5-24 45.5-1.06 2.65-2.23 5.21-3.43 7.8-3.35 7.29-6.25 14.8-8.79 22.4-5.09 15-14.8 36.7-28.8 45.3-7.69 3.75-15.5 5.3-24 4-2.35-1.28-2.35-1.28-4-3-1.91-15.1 7.4-27.8 16.2-39.1 5.24-6.62 10.6-12.9 16.7-18.7 10.1-10.2 20.5-22.5 20.5-37.3 8.46e-4 -1.13 8.46e-4 -1.13 0.00171-2.28-0.121-6.14-1.42-11.1-4.38-16.5-0.33-0.66-0.66-1.32-1-2-3.29-1.1-5.73-1.03-9.19-1.06-12.4-0.812-23.7-7.72-32.8-15.9-0.672-0.545-1.34-1.09-2.04-1.65-7.36-6.48-11.9-16.1-15-25.3 0.0852-3.07 0.258-6.12 0.453-9.19-0.157-3-0.157-3-2.73-4.61-7-3.1-13.3-4.17-20.6-1.52-12.2 5.58-22.6 14.8-29.2 26.4-0.46 0.803-0.919 1.61-1.39 2.43-6.51 11.7-11.6 24.2-16.7 36.6-0.772 1.86-1.55 3.72-2.32 5.58-4.65 11.2-9.2 22.4-13.5 33.7-0.267 0.694-0.533 1.39-0.808 2.1-4.69 12.7-5.52 24.6-5.05 38 0.354 11-0.639 18.4-8.23 26.8-8.15 7.43-16.7 11.1-27.6 11.1-0.759 0.0245-1.52 0.049-2.3 0.0742-5.5 0.0291-5.5 0.0291-7.97-2.29-1.95-4.04-2.11-6.86-1.79-11.3 0.067-1.08 0.134-2.15 0.203-3.26 1.2-7.96 4.36-14.6 8.36-21.5 0.897-1.58 1.79-3.17 2.69-4.75 0.431-0.754 0.861-1.51 1.31-2.29 2.47-4.33 4.84-8.7 7.19-13.1 0.525-0.949 1.05-1.9 1.59-2.88 4.12-7.73 8.85-16.9 6.41-25.8-2.73-3.25-4.75-5.03-9.04-5.69-9.45-0.504-15.4 4.39-22.4 10.2-2.44 2.02-4.93 3.95-7.44 5.88-9.04 7.25-16.8 15.6-24 24.7-1.98 2.46-4.03 4.81-6.14 7.15-2.74 3.04-5.34 6.16-7.88 9.38-9.62 12.1-19.2 23.9-35.1 27.1-5.68 0.371-9.62-1.46-14-5-1.36-2.57-2.37-4.8-3.31-7.5-0.376-0.996-0.376-0.996-0.76-2.01-6.23-16.7-0.61-33.8 6.2-49.6 2.37-5 5.57-9.43 8.87-13.8l1.82-2.49c10.5-14 23.4-22.1 40.8-25.2 7.22-0.955 13.1-0.107 20.1 1.93 8.93 2.05 18.2 2.02 27.3 2.13 1.21 0.0374 2.41 0.0748 3.66 0.113 8.06 0.0788 13.5-1.15 20.3-5.49 1.02-0.634 2.05-1.27 3.1-1.92 10.9-7.92 20.4-18.2 24.5-31.4 0.646-5.45-0.323-8.85-3.38-13.4-7.67-5.57-18-6.91-27.2-8.31v-2c-0.722-0.248-1.44-0.495-2.19-0.75-5.22-2.32-8.38-5.71-11.6-10.4-2.69-3.82-5.46-7.25-8.69-10.6-17.6-19.1-26.5-46.9-29.6-72.2-0.0918-0.724-0.184-1.45-0.278-2.2-3.92-33.7 9.46-68.3 29.6-94.9 22.8-28.4 58.6-46.4 94.6-50.6 37.6-3.28 72.1 9.97 101 33.7z" fill="#86D1FB"/>
<path transform="translate(1233 352)" d="m0 0c3.33 3.16 5.9 6.98 8.5 10.8 0.638 0.912 0.638 0.912 1.29 1.84 5.48 8.32 7.03 16.9 6.96 26.7-0.00645 0.964-0.0129 1.93-0.0195 2.92-0.202 7.92-1.66 14.3-5.48 21.3-0.581 1.1-1.16 2.19-1.76 3.32-8.48 14.8-19.8 23.3-35.1 30.2-7.33 3.41-13.9 7.9-20.5 12.5-0.587 0.412-1.17 0.823-1.78 1.25-11.8 8.46-18.8 19.2-21.4 33.6-0.23 2.03-0.363 4.06-0.469 6.1 3.14 1.82 5.61 2.3 9.22 2.49 1.51 0.0943 1.51 0.0943 3.06 0.19 1.06 0.0635 2.13 0.127 3.22 0.192 12.5 0.906 23.8 2.51 33.5 11.1v2c0.99 0.33 1.98 0.66 3 1 1.35 1.74 1.35 1.74 2.62 3.88 0.638 1.05 0.638 1.05 1.29 2.12 3.35 6.19 3.04 13.5 1.21 20.2-4.36 11.3-11.2 17.4-21.1 23.8-0.913 0.631-1.83 1.26-2.77 1.91-3.1 2-6.15 3.6-9.49 5.15-1.19 0.551-2.37 1.1-3.59 1.67-0.612 0.281-1.22 0.563-1.86 0.853-1.84 0.844-3.67 1.7-5.5 2.55-6.76 3.13-13.6 6-20.5 8.63-3.4 1.29-6.78 2.66-10.1 4.04-16.5 6.75-33.1 12.8-50.1 18.2-1.15 0.366-2.31 0.733-3.49 1.11-1.15 0.361-2.3 0.721-3.48 1.09-1.04 0.326-2.08 0.653-3.15 0.989-3.65 1.02-7.11 1.51-10.9 1.81-1.05-3.25-0.924-5.49-0.25-8.81 0.288-1.44 0.288-1.44 0.582-2.92 0.22-1.08 0.441-2.16 0.668-3.27 0.231-1.23 0.461-2.47 0.699-3.74 1.15-6.05 2.33-11.9 4.43-17.7 0.965-2.81 1.79-5.66 2.61-8.52 7.02-24.4 16.9-47.8 29.3-70 0.77-1.41 1.54-2.82 2.31-4.23 3.82-6.95 7.84-13.7 12.2-20.4 2.54-3.88 4.96-7.81 7.34-11.8 6.04-10.1 12.6-19.7 19.5-29.2 1.63-2.29 3.24-4.59 4.85-6.89 6.29-8.99 12.8-17.8 19.4-26.6 6.6-8.76 13.1-17.4 18.5-27 0.411-0.633 0.822-1.27 1.25-1.92 2.66-4.18 3.23-7.17 2.75-12.1-0.33-0.99-0.66-1.98-1-3-15.7-0.852-29.6 3.53-41.5 14-2.11 1.92-4.16 3.9-6.19 5.91-2.33 2.12-2.33 2.12-4.33 2.12-0.246 0.553-0.492 1.11-0.746 1.68-1.5 2.78-3.33 5.04-5.32 7.51-6.05 7.66-11.4 15.8-16.9 23.9-3.45 5.13-6.94 10.2-10.7 15.1-2.35 3.13-4.55 6.35-6.76 9.59-0.476 0.695-0.952 1.39-1.44 2.11-3.43 5.02-6.83 10.1-10.2 15.1-1.38 2.07-2.77 4.12-4.19 6.16-13.5 19.6-25.7 40.8-34.6 62.9-1.33 3.12-2.87 6.06-4.45 9.06-7.87 15.5-13.5 32.3-19.1 48.7-0.538 1.58-1.08 3.15-1.62 4.73-4.84 14-4.84 14-8.42 28.3-0.623 2.82-1.38 5.54-2.18 8.31-1.6 5.83-2.52 11.6-3.21 17.6-0.125 1.07-0.25 2.13-0.379 3.23-0.828 7.65-1.25 15.3-1.31 23-0.0138 0.983-0.0276 1.97-0.0417 2.98 0.00604 0.903 0.0121 1.81 0.0183 2.74 0.00338 0.794 0.00677 1.59 0.0103 2.41 0.192 0.961 0.192 0.961 0.388 1.94 2.72 2.28 2.72 2.28 5.29 1.75 6.99-1.89 13.8-4.08 20.7-6.4 5.44-1.84 10.9-3.58 16.4-5.22 0.707-0.215 1.41-0.43 2.14-0.652 3.35-0.985 5.95-1.47 9.48-1.47 4.31 15.4 4.48 30.8 4.5 46.7 0.00268 1.15 0.00536 2.3 0.00812 3.48-0.0102 20.2-1.93 39.2-6.51 58.8-0.262 1.16-0.523 2.32-0.792 3.51-1.37 6.02-2.87 12-4.51 18-0.667 2.42-1.31 4.85-1.94 7.29-2.16 8.05-4.96 15.2-8.89 22.6-1.35 2.56-2.53 5.13-3.63 7.8-4.74 11.4-10.8 21.4-17.8 31.7-1.81 2.7-3.54 5.45-5.26 8.21-2.83 4.46-5.87 8.73-9.02 13-1.58 2.16-3.11 4.32-4.62 6.52-3.99 5.8-7.82 11.2-13.4 15.7-2.82 2.26-5.47 4.69-8.13 7.14-0.519 0.474-1.04 0.948-1.57 1.44-3.08 2.83-6.03 5.74-8.93 8.75-4.84 4.9-10.2 8.97-15.7 13.1-1.93 1.45-3.85 2.92-5.77 4.39-20.5 15.7-44.3 29.2-69.4 36.2-2.71 0.744-2.71 0.744-5.29 1.84-2.24 0.884-4.23 1.36-6.59 1.76-3.6 0.742-6.41 1.92-9.62 3.69-7.42 3.89-15.2 4.4-23.4 4.94-4.95 0.324-9.71 1.07-14.6 2.06-6.9 1.4-13.6 1.99-20.7 2.29-3.43 0.137-3.43 0.137-6.42 0.727-4.07 0.636-8.05 0.63-12.2 0.609l-2.39 0.0117c-4.02-0.00674-7.6-0.337-11.5-1.14-2.33-0.143-4.66-0.217-6.99-0.291-7.43-0.238-14.2-0.656-21.3-2.97-3.32-0.902-6.54-1.17-9.97-1.49-10-1.03-19.4-4.29-29-7.37-4.73-1.5-9.51-2.85-14.3-4.19-4.34-1.25-8.38-2.84-12.5-4.69-1.03-0.443-1.03-0.443-2.07-0.894-30.9-13.4-62.5-33.7-84.9-59.1-1-3-1-3-0.285-4.8 4.01-6.41 9.09-10.7 15-15.3 2.63-2.13 4.95-4.45 7.31-6.88 1.15-1.15 2.3-2.29 3.44-3.44 1.87-1.88 3.73-3.77 5.59-5.66 1.49-1.51 2.98-3.02 4.47-4.52 0.746-0.763 1.49-1.53 2.26-2.31 1.09-1.1 1.09-1.1 2.21-2.23 0.981-0.997 0.981-0.997 1.98-2.01 5.48-4.87 5.48-4.87 8.99-4.76 2.95 1.34 5.47 3 8.06 4.94v2c1.07 0.356 1.07 0.356 2.17 0.719 3.3 1.49 5.45 3.37 8.14 5.78 4.61 3.98 9.38 7.42 14.6 10.6 0.599 0.371 1.2 0.741 1.81 1.12 2.09 1.27 4.2 2.51 6.31 3.75 1.54 0.928 1.54 0.928 3.12 1.87 8.15 4.84 16.4 8.8 25.3 12.1 0.997 0.377 0.997 0.377 2.01 0.762 11.8 4.42 23.8 7.42 36.2 9.93 0.818 0.167 1.64 0.333 2.48 0.505 9.96 2 19.7 3.39 29.9 3.81 0.907 0.038 1.81 0.0761 2.75 0.115 42.6 1.33 88.4-12.1 122-38.1 1.79-1.27 3.58-2.54 5.38-3.81 4.92-3.57 9.55-7.42 14.1-11.4 2.27-1.97 4.43-3.73 7.06-5.19 3.25-2.1 5.29-4.89 7.56-7.95 0.964-1.26 1.93-2.53 2.9-3.79 0.491-0.64 0.982-1.28 1.49-1.94 2.32-2.96 4.78-5.8 7.24-8.65 24.8-29.1 40-67.4 40.6-106 0.0347-1.9 0.0347-1.9 0.0702-3.84 0.0475-2.67 0.0931-5.33 0.136-8 0.0551-3.41 0.119-6.82 0.185-10.2 0.0621-3.27 0.116-6.54 0.171-9.8 0.0239-1.22 0.0478-2.45 0.0724-3.71 0.0169-1.14 0.0337-2.27 0.0511-3.44 0.017-0.997 0.0339-1.99 0.0514-3.02-0.0813-2.4-0.448-4.33-1.09-6.63-0.148-2.1-0.271-4.21-0.375-6.31-0.427-6.05-1.49-10.2-4.66-15.4-1.11-2.64-1.42-5.17-1.75-8-1.18-9.57-4.11-17.7-8.17-26.4-0.391-0.843-0.782-1.69-1.19-2.55-0.537-1.12-0.537-1.12-1.08-2.26-0.779-2.1-0.779-2.1-0.779-6.1 1.93-1.72 3.77-3.16 5.88-4.62 17.2-12.6 28-29.5 37.2-48.5 0.945-1.86 0.945-1.86 1.95-2.86 0.325-1.51 0.609-3.04 0.875-4.56 0.634-3.38 1.42-6.4 2.75-9.56 1.93-4.87 2.37-9.38 0.375-14.4-2.54-1.9-4.66-2.11-7.8-1.97-3.34 0.718-5.79 2.41-8.54 4.38-1.66 1.09-1.66 1.09-3.66 1.09-0.287 0.582-0.575 1.16-0.871 1.77-8.92 17.7-19.4 33.2-39.1 39.7-6.11 1.27-12.2-0.694-17.4-3.95-6.2-5.01-10.6-11.6-11.7-19.6-0.656-11.1-0.269-21.3 3-32 0.472-2.06 0.93-4.12 1.38-6.19 2.6-11.3 5.77-22.3 10.5-32.9 1.23-3.01 2.11-6 2.98-9.12 2.18-7.36 5.57-13.9 9.11-20.7 1.09-2.12 2.13-4.26 3.16-6.42 8.65-18.1 8.65-18.1 18.6-21.9 6.99-2.33 12.6-2.96 19.9-2.13 2.57 0.262 5.08 0.438 7.66 0.539 0.724 0.0312 1.45 0.0624 2.2 0.0945 1.43 0.0586 2.86 0.107 4.3 0.145 1.98 0.0925 1.98 0.0925 5.26 0.569 2.72 4.08 3.01 8.35 3.68 13.1 0.742 4.55 1.62 7.07 5.32 9.89 5.55 2.65 10.5 2.19 16.2 0.246 14.2-5.93 24.6-16.4 32.8-29.2 0.889-1.34 0.889-1.34 1.8-2.71 3.18-4.26 3.18-4.26 3.89-9.19-0.228-0.694-0.456-1.39-0.691-2.1-0.815-7.45-1.12-15-1.25-22.4-0.0258-1.28-0.0516-2.55-0.0781-3.87 0.624-7.03 3.91-13.5 9.11-18.3 5.46-4.24 11.4-6.91 17.8-9.48 0.772-0.312 1.54-0.625 2.34-0.947 14.1-5.47 28.5-8.9 43.4-11.2 0.806-0.128 1.61-0.256 2.44-0.389 24.6-3.87 47.9-4.46 69 11.2z" fill="#7EABD5"/>
<path transform="translate(798 17.7)" d="m0 0c2.98 0.0107 5.96 4.81e-5 8.94-0.0127 13.1-0.0102 25.6 0.78 38.4 4.09 0.656 0.17 1.31 0.339 1.99 0.514 7.08 1.86 14.1 3.92 21.1 6.04 2.04 0.616 4.08 1.22 6.12 1.82 9.94 2.96 19.5 6.67 29 10.8 1.09 0.472 2.17 0.944 3.29 1.43 14.9 6.67 29.3 14.3 42.7 23.6 0.683 0.467 1.37 0.934 2.07 1.42 8.97 6.16 17.6 12.6 25.9 19.6 2.89 2.32 5.79 4.64 8.69 6.96 2.2 1.94 3.9 3.47 5.31 6.04-0.0769 3.25-0.741 4.68-2.79 7.21-0.752 0.714-1.5 1.43-2.28 2.16-0.822 0.789-1.64 1.58-2.49 2.39-2.01 1.84-4.05 3.61-6.13 5.36-4.63 3.97-8.67 8.47-12.8 13-4.15 4.49-8.38 8.9-12.7 13.2-0.811 0.817-0.811 0.817-1.64 1.65-2.3 2.29-4.46 4.23-7.18 6.04-3.8-0.293-6.2-1.41-9-4v-2c-0.565-0.254-1.13-0.508-1.71-0.77-2.59-1.39-4.65-3.04-6.91-4.92-24.5-19.8-53-32.8-83.4-40.6-0.908-0.234-1.82-0.468-2.75-0.71-16.4-4.01-32.6-5.68-49.4-5.67-0.949-0.00212-1.9-0.00425-2.88-0.00644-25.9 0.0333-51 5.53-74.6 16.3-0.743 0.337-1.49 0.674-2.25 1.02-24.1 11.1-45.6 25.1-65 43.3-0.875 0.81-1.75 1.62-2.65 2.45-31.9 30.6-55.1 82.9-56.5 127-0.0757 4.33-0.0851 8.67-0.0789 13 6.04e-4 0.775 0.00121 1.55 0.00183 2.35 0.0683 32.3 5.44 60.7 19.2 90 0.532 1.15 1.06 2.29 1.61 3.48 3.79 7.88 8.17 15.3 12.8 22.7 0.461 0.734 0.921 1.47 1.4 2.22 0.416 0.655 0.833 1.31 1.26 1.98 0.899 1.66 0.899 1.66 0.899 3.66h2c-0.335 2.69-0.66 3.74-2.84 5.43-0.838 0.477-1.68 0.954-2.54 1.45-12.8 7.76-24.8 16.8-35.5 27.2-2.15 1.91-2.15 1.91-4.15 1.91-0.268 0.639-0.536 1.28-0.812 1.94-1.19 2.06-1.19 2.06-4.19 3.06-0.309 0.66-0.619 1.32-0.938 2-1.06 2-1.06 2-2.88 3.06-2.19-0.0625-2.19-0.0625-4.62-2.19-0.846-0.949-1.69-1.9-2.56-2.88-0.749-0.683-1.5-1.37-2.27-2.07-3.72-3.71-6.27-8.22-8.98-12.7-0.573-0.941-1.15-1.88-1.74-2.85-1.69-2.79-3.35-5.59-5.01-8.4-0.429-0.717-0.858-1.43-1.3-2.17-18.1-30.7-27-67-32.7-102l-0.571-3.42c-1.9-11.8-2.61-23.4-2.62-35.3l-0.0371-3.48c-0.104-62.2 28.8-130 71.1-175 1.82-1.95 3.57-3.94 5.31-5.96 3.89-4.46 8.02-8.66 12.2-12.8 0.712-0.716 1.42-1.43 2.16-2.17 7.12-7.1 14.6-13.6 22.6-19.6 0.742-0.563 1.48-1.13 2.25-1.71 2.18-1.65 4.37-3.29 6.56-4.92 0.579-0.431 1.16-0.863 1.76-1.31 9.25-6.81 19.1-12.3 29.2-17.7 0.648-0.349 1.3-0.698 1.96-1.06 8.61-4.62 17.5-8.47 26.5-12.1 1.49-0.606 1.49-0.606 3.02-1.22 15.9-6.3 31.2-9.82 48.1-12.3 1.98-0.296 3.95-0.594 5.93-0.893 3.8-0.573 7.61-1.13 11.4-1.68 2.93-0.423 5.84-0.879 8.75-1.38 9.91-1.67 19.8-1.66 29.8-1.62z" fill="#FCD08F"/>
<path transform="translate(1366,425)" d="m0 0c5.89 5.66 8.3 10.8 8.56 19 0.0779 16.6-8.32 32.4-15.6 47-18.6 36.9-18.6 36.9-26 77 6.12-0.471 10.6-1.84 16-4.69 0.701-0.362 1.4-0.723 2.12-1.1 10.6-5.59 22-13.8 26.9-25.2 0.65-2.5 1.25-4.98 1.81-7.5 3.07-13.6 9.16-24.8 19.2-34.5 1.22-1.22 1.22-1.22 2.46-2.47 30-29.8 87.3-66.2 131-66.6 5.88 0.282 10.2 0.83 14.6 5.03 4.23 5.11 6.54 10.3 6 17-0.877 3.59-2.33 6.71-4 10-0.806 1.59-0.806 1.59-1.63 3.22-3.89 7.22-8.37 13.5-13.6 19.8-13.8 16.5-13.8 16.5-21.8 36-0.199 0.785-0.397 1.57-0.602 2.38-0.383 2.63-0.353 4.13 0.602 6.62 2.73 2.85 5.83 4.85 9.19 6.89 2 1.22 3.94 2.5 5.89 3.8 1.41 0.919 2.82 1.84 4.23 2.75 1 0.656 1 0.656 2.03 1.33 3.82 2.4 7.02 4.17 11.7 4.24 2.11-1.01 2.11-1.01 3.81-2.81 0.672-0.645 1.34-1.29 2.04-1.95 7.28-7.35 7.28-7.35 13.3-15.7 2.34-3.3 3.97-4.28 7.81-5.56 4.96-0.716 8.67-0.721 13.1 1.69 3.41 6.03 2.75 12.6 1.18 19.3-2.21 6.54-5.52 12.3-9.3 18.1-0.401 0.638-0.802 1.28-1.21 1.93-3.23 4.88-7.3 8.36-11.8 12.1-1.04 0.887-2.08 1.77-3.11 2.66-1.09 0.925-2.17 1.85-3.26 2.77-0.524 0.45-1.05 0.899-1.59 1.36-3.81 3.2-3.81 3.2-6.04 3.2-0.273 0.596-0.547 1.19-0.828 1.8-1.13 2.12-2.29 3.57-3.92 5.32-9.55 10.9-14.4 24.8-18.8 38.4-7.87 24.2-7.87 24.2-13.1 33.2-0.434 0.767-0.868 1.53-1.31 2.33-12.3 21.4-27.3 41.9-47.1 56.9-0.861 0.677-1.72 1.35-2.61 2.05-9.51 7.24-20.7 14.2-32.4 16.9-1.12 0.276-2.24 0.552-3.4 0.836-16.2 3.66-34.5 4.77-49.4-3.38-10.9-7.13-18.2-17.3-20.9-30.2-2.06-16.3 2.05-32.4 11.6-45.9 1.98-2.53 4.04-4.96 6.15-7.39 0.655-0.788 1.31-1.58 1.98-2.39 12.5-14.6 27.7-24.7 44-34.6 1.42-0.882 2.85-1.76 4.27-2.65 9.58-5.86 19.5-10.9 29.6-15.8 5.93-2.9 11.6-5.93 17.1-9.55-0.33-1.65-0.66-3.3-1-5-5.88-1.73-9.38 0.0389-14.6 2.56-0.793 0.365-1.59 0.73-2.4 1.11-4.63 2.15-9.15 4.45-13.7 6.83-4.32 2.17-7.41 3.56-12.3 2.5-3.28-1.8-6.3-3.6-8-7-1.58-12.2 7.22-22.2 14.2-31.4 0.934-1.21 1.87-2.42 2.81-3.62 0.417-0.536 0.835-1.07 1.27-1.62 4.05-5.15 8.23-9.97 12.9-14.5 3.01-3.11 5.63-6.52 8.33-9.9 2.16-2.59 4.39-5.02 6.71-7.45 8.47-8.88 15.9-19.9 15.9-32.6-0.0619-0.949-0.124-1.9-0.188-2.88-10.5 4.54-19.1 11-28 18-0.908 0.704-1.82 1.41-2.75 2.13-6.66 5.24-13 10.8-19.5 16.3-2.86 2.46-5.73 4.91-8.6 7.35-0.805 0.689-0.805 0.689-1.63 1.39-3.09 2.62-6.26 5.02-9.56 7.36-4.78 3.68-6.67 7.98-9 13.4-7.98 17.8-19.7 33.7-33 48-0.563 0.612-1.13 1.22-1.71 1.85-13.9 15-30.7 30-52.1 31.4-10.8 0.283-20.7-0.415-29.7-7.24-5.47-5.24-9.22-14.3-9.77-21.8-0.195-14.1 2.98-27.3 6.59-40.9 0.419-1.59 0.829-3.18 1.23-4.78 9.76-38.6 23-86.5 50.4-117 1.15-1.31 1.15-1.31 2.33-2.65 6.56-7.05 19.6-19.1 29.7-13.4z" fill="#000100"/>
<path transform="translate(231 281)" d="m0 0c1.21 0.994 2.42 1.99 3.62 3 0.846 0.577 1.69 1.15 2.56 1.75 7.42 6.85 12.1 15.1 12.7 25.1 0.699 26.3-8.15 56.4-26.2 76.1-0.799 0.914-1.6 1.83-2.42 2.77-13.5 14.6-31.5 20.7-51.2 21.5-2.45 0.0858-4.9 0.168-7.35 0.246-1.26 0.0432-2.51 0.0864-3.81 0.131-3.09 0.106-6.17 0.208-9.26 0.307 0.752 4.71 2.09 6.55 5.56 9.88 1.37 1.31 1.37 1.31 2.77 2.66 3.5 3.23 7.04 6.39 10.7 9.47 1.04 0.891 2.08 1.78 3.12 2.68 0.568 0.487 1.14 0.975 1.72 1.48 1.2 1.03 2.4 2.06 3.6 3.1 3.03 2.61 6.08 5.18 9.19 7.7 13.9 11.4 27.8 26.6 30.4 45.1 0.294 4.36 0.334 8.7 0.312 13.1-0.00564 1.2-0.0113 2.39-0.0171 3.63-0.461 33.7-18.8 59.4-42 82.4-5.55 5.34-11.5 10.1-17.6 14.7-1.49 1.11-2.97 2.24-4.44 3.37-7.02 5.29-14.5 9.65-22.2 13.8-1.48 0.804-1.48 0.804-3 1.62-12.8 6.67-25.8 11.1-40 13.4-1.15 0.184-2.3 0.369-3.48 0.559-22.7 2.84-44.8-1.96-63.3-15.6-6.45-5.09-12-10.7-17.2-17-0.69-0.665-1.38-1.33-2.09-2.01-2.76-4.32-2.48-8.08-2.44-13.1-0.00574-1.47-0.00574-1.47-0.0116-2.96-0.00272-2.06 0.00463-4.13 0.0214-6.19 0.0214-3.15 2.03e-4 -6.3-0.0254-9.45 0.00264-2.01 0.00777-4.02 0.0156-6.03-0.0081-0.938-0.0162-1.88-0.0245-2.84 0.083-5.82 0.866-8.88 4.56-13.4 0.781-1.53 1.53-3.07 2.25-4.62 5.49-11.1 12.8-20.1 21.4-29 1.17-1.22 2.32-2.46 3.46-3.7 12.4-13.3 35.6-27.9 54.1-29.1 6.14-0.177 12.1-0.305 17.8 2.37 6.31 7.8 5.4 20.5 4.46 29.9-1.01 6.69-3.35 10.5-8.55 14.8-5.39 3.55-10.8 3.74-17 4.2-17.1 1.4-17.1 1.4-30.7 11.2-3.76 4.94-3.7 8.8-3.19 14.9 3.82 10.5 13.5 17.5 23.2 22.3 17.5 7.07 37.7 5.98 55-1.19 6.43-3.26 11.9-7.86 16.8-13.1 0.471-0.465 0.941-0.931 1.43-1.41 8.81-9.26 11.9-20.8 11.8-33.3-1.06-17.1-13.1-32.2-25.4-43.3-3.2-2.79-6.5-5.44-9.83-8.06l-1.82-1.44c-3.01-2.38-6.03-4.74-9.05-7.1-3.48-2.73-6.88-5.44-10.1-8.45v-2h-2c-6-6.31-10.9-13.4-15-21-0.503-0.901-1.01-1.8-1.52-2.73-10.7-20.2-14.3-44.9-8.45-67.2 4.51-14.3 11.1-27 20-39.1 0.643-0.91 1.29-1.82 1.95-2.76 21.5-29.8 52.9-54 89.7-60.1 15.8-2.35 33.3-2.18 46.7 7.81z" fill="#000100"/>
<path transform="translate(1233 352)" d="m0 0c3.33 3.16 5.9 6.98 8.5 10.8 0.425 0.608 0.85 1.22 1.29 1.84 5.48 8.32 7.03 16.9 6.96 26.7-0.00645 0.964-0.0129 1.93-0.0195 2.92-0.202 7.92-1.66 14.3-5.48 21.3-0.872 1.64-0.872 1.64-1.76 3.32-8.48 14.8-19.8 23.3-35.1 30.2-7.33 3.41-13.9 7.9-20.5 12.5-0.587 0.412-1.17 0.823-1.78 1.25-11.8 8.46-18.8 19.2-21.4 33.6-0.23 2.03-0.363 4.06-0.469 6.1 3.14 1.82 5.61 2.3 9.22 2.49 1.51 0.0943 1.51 0.0943 3.06 0.19 1.06 0.0635 2.13 0.127 3.22 0.192 12.5 0.906 23.8 2.51 33.5 11.1v2c0.99 0.33 1.98 0.66 3 1 1.35 1.74 1.35 1.74 2.62 3.88 0.425 0.699 0.851 1.4 1.29 2.12 3.35 6.19 3.04 13.5 1.21 20.2-4.36 11.3-11.2 17.4-21.1 23.8-0.913 0.631-1.83 1.26-2.77 1.91-3.1 2-6.15 3.6-9.49 5.15-1.19 0.551-2.37 1.1-3.59 1.67-0.612 0.281-1.22 0.563-1.86 0.853-1.84 0.844-3.67 1.7-5.5 2.55-6.76 3.13-13.6 6-20.5 8.63-3.4 1.29-6.78 2.66-10.1 4.04-16.5 6.75-33.1 12.8-50.1 18.2-1.15 0.366-2.31 0.733-3.49 1.11-1.15 0.361-2.3 0.721-3.48 1.09-1.04 0.326-2.08 0.653-3.15 0.989-3.65 1.02-7.11 1.51-10.9 1.81-1.05-3.25-0.924-5.49-0.25-8.81 0.288-1.44 0.288-1.44 0.582-2.92 0.22-1.08 0.441-2.16 0.668-3.27 0.231-1.23 0.461-2.47 0.699-3.74 1.15-6.05 2.33-11.9 4.43-17.7 0.965-2.81 1.79-5.66 2.61-8.52 7.02-24.4 16.9-47.8 29.3-70 0.77-1.41 1.54-2.82 2.31-4.23 3.82-6.95 7.84-13.7 12.2-20.4 2.54-3.88 4.96-7.81 7.34-11.8 6.04-10.1 12.6-19.7 19.5-29.2 1.63-2.29 3.24-4.59 4.85-6.89 6.29-8.99 12.8-17.8 19.4-26.6 6.6-8.76 13.1-17.4 18.5-27 0.411-0.633 0.822-1.27 1.25-1.92 2.66-4.18 3.23-7.17 2.75-12.1-0.33-0.99-0.66-1.98-1-3-15.7-0.852-29.6 3.53-41.5 14-2.11 1.92-4.16 3.9-6.19 5.91-2.33 2.12-2.33 2.12-4.33 2.12-0.246 0.553-0.492 1.11-0.746 1.68-1.5 2.78-3.33 5.04-5.32 7.51-6.05 7.66-11.4 15.8-16.9 23.9-3.45 5.13-6.94 10.2-10.7 15.1-2.35 3.13-4.55 6.35-6.76 9.59-0.476 0.695-0.952 1.39-1.44 2.11-3.43 5.02-6.83 10.1-10.2 15.1-1.38 2.07-2.77 4.12-4.19 6.16-13.5 19.6-25.7 40.8-34.6 62.9-1.33 3.12-2.87 6.06-4.45 9.06-5.11 10-8.85 20.6-12.8 31.1-0.98 2.59-2 5.16-3.03 7.73-0.33-0.99-0.66-1.98-1-3-1.33-0.349-2.66-0.68-4-1-3.28-2.73-5.69-5.62-6.62-9.81 0.583-2.97 1.45-5.29 2.62-8.06 2.31-5.46 3.29-9.9 1-15.6-2.54-1.9-4.66-2.11-7.8-1.97-3.34 0.718-5.79 2.41-8.54 4.38-1.66 1.09-1.66 1.09-3.66 1.09-0.287 0.582-0.575 1.16-0.871 1.77-8.92 17.7-19.4 33.2-39.1 39.7-6.11 1.27-12.2-0.694-17.4-3.95-6.2-5.01-10.6-11.6-11.7-19.6-0.656-11.1-0.269-21.3 3-32 0.472-2.06 0.93-4.12 1.38-6.19 2.6-11.3 5.77-22.3 10.5-32.9 1.23-3.01 2.11-6 2.98-9.12 2.18-7.36 5.57-13.9 9.11-20.7 1.09-2.12 2.13-4.26 3.16-6.42 8.65-18.1 8.65-18.1 18.6-21.9 6.99-2.33 12.6-2.96 19.9-2.13 2.57 0.262 5.08 0.438 7.66 0.539 0.724 0.0312 1.45 0.0624 2.2 0.0945 1.43 0.0586 2.86 0.107 4.3 0.145 1.98 0.0925 1.98 0.0925 5.26 0.569 2.72 4.08 3.01 8.35 3.68 13.1 0.742 4.55 1.62 7.07 5.32 9.89 5.55 2.65 10.5 2.19 16.2 0.246 14.2-5.93 24.6-16.4 32.8-29.2 0.593-0.895 1.19-1.79 1.8-2.71 3.18-4.26 3.18-4.26 3.89-9.19-0.228-0.694-0.456-1.39-0.691-2.1-0.815-7.45-1.12-15-1.25-22.4-0.0387-1.92-0.0387-1.92-0.0781-3.87 0.624-7.03 3.91-13.5 9.11-18.3 5.46-4.24 11.4-6.91 17.8-9.48 0.772-0.312 1.54-0.625 2.34-0.947 14.1-5.47 28.5-8.9 43.4-11.2 0.806-0.128 1.61-0.256 2.44-0.389 24.6-3.87 47.9-4.46 69 11.2z" fill="#86D1FB"/>
<path transform="translate(797,489)" d="m0 0c2.35 1.86 4.11 3.48 6.06 5.69 0.988 1.07 1.98 2.14 2.97 3.2 0.481 0.523 0.962 1.05 1.46 1.58 1.54 1.57 3.16 2.93 4.88 4.3 1.3 1.1 1.3 1.1 2.63 2.23v2h2c0.746 2.19 0.746 2.19 1 5-1.59 2.44-1.59 2.44-3.94 5-5.13 5.94-9.19 12.2-13.1 19-0.345 0.6-0.69 1.2-1.05 1.82-9.25 16.2-19.2 34.6-21.1 53.4-1.2 3.87-3.51 4.56-6.86 6.76-1.95 2.55-3.46 5.31-5 8.12-0.434 0.763-0.867 1.53-1.31 2.31-1.24 2.18-2.47 4.37-3.69 6.56-4.32 7.68-9.32 14.3-15 21-1.44 1.79-2.88 3.58-4.31 5.38-3.47 4.23-7.06 8.34-10.8 12.4-0.47 0.519-0.941 1.04-1.43 1.57-6.43 6.95-13.7 12.7-21.4 18.2-0.796 0.57-1.59 1.14-2.41 1.73-5.43 3.86-10.9 7.51-16.7 10.7-0.569 0.324-1.14 0.648-1.72 0.981-25.5 14.5-55.9 24.5-85.3 25.6-1.26 0.0547-1.26 0.0547-2.54 0.111-54.4 2.11-103-9.19-146-43.7-0.898-0.695-1.8-1.39-2.72-2.11-14.7-11.6-26.9-25.4-37.3-40.9-0.978-1.43-0.978-1.43-1.98-2.89-5.65-8.5-10.5-17.4-15.2-26.4-3.49-6.6-7.39-12.7-11.8-18.7-0.66-0.99-1.32-1.98-2-3 9.67-18.4 20-36.2 32.4-52.9 0.46-0.62 0.919-1.24 1.39-1.88 2.94-3.85 6.14-7.28 9.61-10.7 1.33-1.3 2.61-2.66 3.87-4.03 5.14-4.78 11-9.28 17.7-11.5 2.31 0.375 2.31 0.375 4 1 1.45 4.61 0.456 7.01-1.61 11.3-0.28 0.593-0.561 1.19-0.85 1.8-0.898 1.89-1.81 3.77-2.73 5.66-0.598 1.25-1.2 2.5-1.79 3.75-1.15 2.42-2.31 4.84-3.47 7.26-11.3 23.6-24.5 58.3-16.5 84.6 2.59 6.95 6.3 12.1 13 15.6 9.27 3.95 24.3 3.78 33.7 0.215 5.49-2.87 10.4-6.46 15.3-10.2 0.606-0.456 1.21-0.913 1.84-1.38 9.75-7.41 18.4-15.6 27-24.4 0.766-0.788 1.53-1.58 2.32-2.39 0.678-0.708 1.36-1.42 2.06-2.15 1.83-1.65 1.83-1.65 4.83-2.65 1.68 1.68 1.41 4.01 1.69 6.31 1.56 9.75 6.08 19.6 13.9 26 1.71 1.22 3.45 2.35 5.23 3.47l1.75 1.17c7.81 4.99 16.2 6.17 25.3 4.58 12.4-2.81 23.1-8.98 34-15.2 1.8-1.02 3.6-2.03 5.4-3.05 1.62-0.91 3.24-1.83 4.85-2.74 2.58-1.37 5.14-2.5 7.87-3.52v2h2c0.147 0.727 0.294 1.45 0.445 2.2 2.35 10.6 5.79 21 14.9 27.5 12.6 7.35 25.6 5.93 39.3 2.4 17.1-5.24 31.1-14.2 44.4-26.1 0.789-0.687 1.58-1.37 2.39-2.08 15.1-14.1 28.1-35.4 30.4-56 1.27-9.79 5.49-18.8 9.19-27.9 0.538-1.36 1.08-2.72 1.61-4.07 12.7-31.2 12.7-31.2 27.4-28.9z" fill="#FDFDFD"/>
<path transform="translate(982 301)" d="m0 0c13.5-0.321 26.9 0.0745 40.4 0.967 1.19 0.0783 2.38 0.157 3.61 0.237 7.76 0.576 15.4 1.42 22.8 3.89v2c1.98 0.495 1.98 0.495 4 1-0.58 0.0606-1.16 0.121-1.76 0.184-0.781 0.0838-1.56 0.168-2.37 0.254-0.766 0.0812-1.53 0.162-2.32 0.246-7.18 0.889-14 2.7-20.9 4.63-1.1 0.296-2.2 0.592-3.33 0.896-9.24 2.56-16.4 4.61-22.2 12.6-0.415 0.566-0.83 1.13-1.26 1.72-1.31 1.81-2.59 3.64-3.87 5.47-0.415 0.593-0.831 1.19-1.26 1.8-4.99 7.17-9.58 14.5-14 22.1-0.431 0.718-0.862 1.44-1.31 2.18-1.76 2.96-3.37 5.76-4.67 8.95-1.24 2.78-2.42 4.08-4.78 6-2.22 0.611-2.22 0.611-4.68 0.836-0.898 0.0892-1.8 0.178-2.72 0.27-2.84 0.206-5.67 0.373-8.51 0.531-11.1 0.646-20.8 6.45-28.2 14.7-4.02 5.58-8.65 12.4-9.1 19.5 0.65 3.6 1.59 5.6 4.18 8.19 3.56 1.19 6.89 1.54 10.6 1.82 2.52 0.194 4.92 0.61 7.38 1.18v2h2c-0.427 6.14-2.46 10.1-5.69 15.3-0.456 0.753-0.912 1.51-1.38 2.28-1.3 2.14-2.61 4.27-3.93 6.41-8.89 14.6-17.8 29.5-24 45.5-1.06 2.65-2.23 5.21-3.43 7.8-3.35 7.29-6.25 14.8-8.79 22.4-5.09 15-14.8 36.7-28.8 45.3-7.69 3.75-15.5 5.3-24 4-2.35-1.28-2.35-1.28-4-3-1.91-15.1 7.4-27.8 16.2-39.1 5.24-6.62 10.6-12.9 16.7-18.7 10.1-10.2 20.5-22.5 20.5-37.3 5.64e-4 -0.752 0.00113-1.5 0.00171-2.28-0.121-6.14-1.42-11.1-4.38-16.5-0.33-0.66-0.66-1.32-1-2-3.29-1.1-5.73-1.03-9.19-1.06-12.4-0.812-23.7-7.72-32.8-15.9-0.672-0.545-1.34-1.09-2.04-1.65-7.36-6.48-11.9-16.1-15-25.3-0.0443-2.02-0.0393-4.04 0-6.06 0.212-4.12 0.212-4.12-1-7.94h2c0.273-0.736 0.547-1.47 0.828-2.23 3.91-9.24 11.1-17.8 18.2-24.8 1.09-1.1 2.18-2.2 3.27-3.3 12.2-12.3 12.2-12.3 18.7-17.7 0.823-0.693 0.823-0.693 1.66-1.4 9.03-7.61 18.2-14.6 28.3-20.6 0.699-0.414 1.4-0.828 2.12-1.25 9.95-5.84 19.9-11 30.9-14.7 0.966-0.328 1.93-0.655 2.93-0.993 16.6-5.51 31.9-8.6 49.3-9.1z" fill="#FDFDFD"/>
<path transform="translate(1178,402)" d="m0 0h3c5.98 10.9 11.7 21.7 15.7 33.6 1.02 2.67 2.05 4.83 3.48 7.27 1.84 3.18 1.84 3.18 1.84 5.18 0.99 0.33 1.98 0.66 3 1-0.632 0.389-1.26 0.779-1.91 1.18-5.6 3.5-11.1 7.13-16.5 10.9-0.582 0.407-1.16 0.814-1.76 1.23-11.8 8.45-18.8 19.2-21.4 33.5-0.23 2.03-0.363 4.06-0.469 6.1 3.14 1.82 5.61 2.3 9.22 2.49 1.01 0.0628 2.02 0.126 3.06 0.19 1.06 0.0635 2.13 0.127 3.22 0.192 12.5 0.906 23.8 2.51 33.5 11.1v2c0.99 0.33 1.98 0.66 3 1 1.35 1.74 1.35 1.74 2.62 3.88 0.425 0.699 0.851 1.4 1.29 2.12 3.35 6.19 3.04 13.5 1.21 20.2-4.36 11.3-11.2 17.4-21.1 23.8-0.913 0.631-1.83 1.26-2.77 1.91-3.1 2-6.15 3.6-9.49 5.15-1.19 0.551-2.37 1.1-3.59 1.67-0.612 0.281-1.22 0.563-1.86 0.853-1.84 0.844-3.67 1.7-5.5 2.55-6.76 3.13-13.6 6-20.5 8.63-3.4 1.29-6.78 2.66-10.1 4.04-16.5 6.75-33.1 12.8-50.1 18.2-1.15 0.366-2.31 0.733-3.49 1.11-1.15 0.361-2.3 0.721-3.48 1.09-1.04 0.326-2.08 0.653-3.15 0.989-3.65 1.02-7.11 1.51-10.9 1.81-1.05-3.25-0.924-5.49-0.25-8.81 0.192-0.963 0.384-1.93 0.582-2.92 0.22-1.08 0.441-2.16 0.668-3.27 0.231-1.23 0.461-2.47 0.699-3.74 1.15-6.05 2.33-11.9 4.43-17.7 0.965-2.81 1.79-5.66 2.61-8.52 7.02-24.4 16.9-47.8 29.3-70 0.77-1.41 1.54-2.82 2.31-4.23 3.82-6.95 7.84-13.7 12.2-20.4 2.54-3.88 4.96-7.81 7.34-11.8 6.04-10.1 12.6-19.7 19.4-29.2 1.64-2.3 3.27-4.61 4.89-6.93 2.44-3.49 4.9-6.96 7.37-10.4 1-1.41 2-2.83 3-4.25 1.5-2.13 3.01-4.25 4.52-6.37 0.453-0.65 0.907-1.3 1.37-1.97 1.11-1.55 2.33-3.02 3.56-4.47z" fill="#FDFDFD"/>
<path transform="translate(382,577)" d="m0 0c8.91 3.72 13 15.6 17.2 23.7 6.08 11.7 12.8 22.8 20.8 33.3 0.539 0.732 1.08 1.46 1.63 2.22 4.89 6.53 10.4 12.4 16 18.4 1.08 1.14 2.15 2.3 3.21 3.45 18.9 20 49.3 37.7 75.4 45.7 3.67 1.29 4.99 1.91 6.75 5.31-1.42 0.0545-2.83 0.093-4.25 0.125-0.789 0.0232-1.58 0.0464-2.39 0.0703-2.57-0.212-4.15-0.909-6.36-2.2v2c-3.37-0.547-5.08-1.05-8-3-3.51-1.72-3.51-1.72-7.31-1.62-0.557 0.206-1.11 0.413-1.69 0.625 0.66-0.33 1.32-0.66 2-1-3.88-1.57-7.3-2.14-11.4-2.38-5.29-0.395-8.17-1.72-12.6-4.62-1.65-0.703-3.31-1.39-5-2v-3c-1.05-0.303-2.1-0.606-3.18-0.918-1.38-0.422-2.76-0.845-4.14-1.27-0.69-0.197-1.38-0.393-2.09-0.596-3.47-1.09-5.31-1.82-7.45-4.83-0.378-0.788-0.755-1.58-1.14-2.39-0.66-0.33-1.32-0.66-2-1v3h-6c0.0206 0.804 0.0412 1.61 0.0625 2.44-0.0625 2.56-0.0625 2.56-1.06 3.56 1.98 0.66 3.96 1.32 6 2v8h-3c0.33 0.66 0.66 1.32 1 2 0.66-0.33 1.32-0.66 2-1v4h2c-0.375 1.94-0.375 1.94-1 4-0.66 0.33-1.32 0.66-2 1 1.65 0.33 3.3 0.66 5 1v2h2v2h2v2h2v2h2c4 6.75 4 6.75 4 9 0.639 0.309 1.28 0.619 1.94 0.938 2.06 1.06 2.06 1.06 3.06 2.06 0.66-0.99 1.32-1.98 2-3 1.91 1.67 3.81 3.33 5.71 5 1.45 1.26 2.9 2.52 4.35 3.77 3.36 2.9 6.67 5.84 9.87 8.91 0.566 0.54 1.13 1.08 1.71 1.64 1.96 2.43 2.35 4.6 2.35 7.68 0.639 0.268 1.28 0.536 1.94 0.812 2.06 1.19 2.06 1.19 3.06 4.19 2.55 1.25 2.55 1.25 5.56 2.19 1.01 0.344 2.02 0.688 3.07 1.04 0.782 0.254 1.56 0.508 2.37 0.77v2h3c0.66 1.32 1.32 2.64 2 4 3.72 0.201 4.77 0.152 8-2v2c1.11-0.0619 2.23-0.124 3.38-0.188 1.2 0.0619 2.39 0.124 3.62 0.188 0.66 0.99 1.32 1.98 2 3 3.11 0.805 3.11 0.805 6.62 1.19 1.19 0.159 2.38 0.317 3.6 0.48 0.915 0.11 1.83 0.219 2.77 0.332v2c3.51 0.934 3.51 0.934 7 0.312 0.66-0.103 1.32-0.206 2-0.312 0.99 0.959 0.99 0.959 2 1.94 4.15 2.85 7.44 2.33 12.4 2.11 2.64-0.043 2.64-0.043 4.64 0.957v2l2.59 0.148c1.1 0.0748 2.21 0.15 3.35 0.227 1.1 0.0696 2.2 0.139 3.34 0.211 0.898 0.137 1.8 0.273 2.72 0.414 0.33 0.66 0.66 1.32 1 2-0.33 0.66-0.66 1.32-1 2-45.8 10.1-108-18.2-145-42-20-13.2-39.3-27.7-56-45-2.43-2.45-4.88-4.88-7.36-7.29-16.9-16.5-30.3-36.2-41.1-57.1-0.339-0.638-0.677-1.28-1.03-1.93-2.3-4.57-3.07-8.53-3.47-13.6 1.49-0.495 1.49-0.495 3-1 0.557 0.309 1.11 0.619 1.69 0.938 3.53 1.62 6.57 1.89 10.3 1.06 3.69-1.92 6.81-4.35 10-7 0.657-0.532 1.31-1.06 1.99-1.61 11-9.93 18.4-24.8 26-37.4z" fill="#D1E591"/>
<path transform="translate(776 597)" d="m0 0c0.557 0.268 1.11 0.536 1.69 0.812 0.098 0.941 0.196 1.88 0.297 2.85 1.05 9.31 1.05 9.31 5.7 17.1v2c0.523 0.259 1.05 0.518 1.59 0.785 1.85 0.929 3.68 1.88 5.52 2.84 18.3 9.43 33.2 11.1 52.9 5.38 11.9-3.95 20.8-10.6 29.8-19.2 2.18-1.78 3.47-2.43 6.23-2.82 3.22 5.25 6.46 10.6 9.01 16.2 1.42 2.55 3.31 2.72 5.99 3.78 3.63 3.12 5.39 5.56 7 10 1.29 2.33 2.62 4.62 3.98 6.91 1.02 2.09 1.02 2.09 1.02 5.09-0.367-0.491-0.735-0.982-1.11-1.49-2.7-2.16-4.67-1.81-8.07-1.7-1.63 0.0406-1.63 0.0406-3.29 0.082-0.831 0.0348-1.66 0.0696-2.52 0.105-0.33-0.99-0.66-1.98-1-3-6.6-2.24-12.3-2.01-19.2-1.34-2.66 0.236-5.21 0.385-7.88 0.422-0.673 0.0176-1.35 0.0353-2.04 0.0535-1.9 0.0458-3.79 0.069-5.69 0.0911-3.47 0.484-3.47 0.484-5.48 3.82-0.839 1.46-0.839 1.46-1.7 2.95h-2v2h-2c-0.33 1.32-0.66 2.64-1 4h-3c0.0412 0.763 0.0825 1.53 0.125 2.31-0.125 2.69-0.125 2.69-2.12 5.69 0.33 0.66 0.66 1.32 1 2-0.438 2.12-0.438 2.12-1 4h-2c-0.33-0.66-0.66-1.32-1-2 0.33 1.98 0.66 3.96 1 6-4.23-1.41-6.69-4.35-9.44-7.81-1.61-1.41-1.61-1.41-4.3-1.68-3.93 0.589-5.12 2.02-7.49 5.11-0.719 0.991-0.719 0.991-1.45 2-0.515 0.676-1.03 1.35-1.56 2.05-1.6 2.1-3.17 4.21-4.75 6.33-1.86 2.45-3.74 4.89-5.62 7.31-0.447 0.576-0.894 1.15-1.35 1.75-3.63 4.61-7.57 8.71-11.8 12.8-2.26 2.17-2.26 2.17-4.26 4.77-1.69 2.11-3.28 3.72-5.37 5.41-3.56 2.97-6.84 6.15-10 9.55-5.3 5.56-11.3 9.97-17.6 14.4-0.654 0.477-1.31 0.953-1.98 1.44-14.3 10.4-29.1 19-45 26.6l-1.88 0.902c-32.6 15.5-71 25.1-107 26.1-0.33-1.65-0.66-3.3-1-5 13.3-2.3 13.3-2.3 19.9-1.88 6.24-0.372 11.9-3.89 17.4-6.73 4.85-2.39 8.35-2.56 13.7-2.39 2.35-0.95 4.69-1.95 7-3 1.7-0.217 1.7-0.217 3.44-0.438 5.24-0.827 9.56-3.02 13.8-6.25 1.81-1.31 1.81-1.31 3.91-1.64 4.04-0.937 7.43-2.82 11.1-4.73 7.56-3.94 7.56-3.94 9.81-3.94v-2l8-4c-1.98-0.99-1.98-0.99-4-2 3.47-1.98 3.47-1.98 7-4-1.11 0.0412-2.23 0.0825-3.38 0.125-3.62-0.125-3.62-0.125-5.62-2.12-0.125-3.12-0.125-3.12 0-6 0.66-0.33 1.32-0.66 2-1v-2h2v-3h-2v-2c3.3-0.33 6.6-0.66 10-1 0.66-2.97 1.32-5.94 2-9h-2v-2h-2v-2h2v-4c1.79-0.027 3.58-0.0464 5.38-0.0625 0.998-0.0116 2-0.0232 3.02-0.0352 2.6 0.0977 2.6 0.0977 4.6 1.1v5h6v1h-5v2h5v3c-1.32-0.33-2.64-0.66-4-1-0.33 0.99-0.66 1.98-1 3 1.62 0.0809 3.25 0.139 4.88 0.188 0.905 0.0348 1.81 0.0696 2.74 0.105 0.786-0.0967 1.57-0.193 2.38-0.293 0.99-1.49 0.99-1.49 2-3 2.62-0.688 2.62-0.688 5-1-0.66-1.65-1.32-3.3-2-5 0.99-0.66 1.98-1.32 3-2-0.66-0.66-1.32-1.32-2-2 0.99-1.49 0.99-1.49 2-3-0.66-0.66-1.32-1.32-2-2 0.99-1.49 0.99-1.49 2-3h2v-2h2v-2c5.18-3.22 5.18-3.22 7-4 0.99 0.33 1.98 0.66 3 1l-2 4h2v-2c6.62-1 6.62-1 10-1v-3c1.32-0.33 2.64-0.66 4-1-0.33-0.99-0.66-1.98-1-3-1.98 1.49-1.98 1.49-4 3v-10h3v-10c-2.58 0.114-5.17 0.241-7.75 0.375-0.73 0.0309-1.46 0.0619-2.21 0.0938-5.37 0.202-5.37 0.202-10 2.53-0.819 3.56-0.819 3.56-1 7h-13v4c-1.62 2.25-1.62 2.25-4 4-3.25 0.25-3.25 0.25-6 0v2c-8.54 4.07-15.9 6.11-25.4 6.66-2.65 0.231-2.65 0.231-5.05 1.37-3.1 1.18-5.57 1.17-8.88 1.1-1.07-0.018-2.14-0.0361-3.24-0.0547-0.808-0.0232-1.62-0.0464-2.45-0.0703-0.103 0.639-0.206 1.28-0.312 1.94-0.227 0.681-0.454 1.36-0.688 2.06-1.49 0.495-1.49 0.495-3 1-0.733 2.02-0.733 2.02-1 4-3.75 1.12-3.75 1.12-6 0v-3c-1.75 0.115-3.5 0.242-5.25 0.375-1.46 0.104-1.46 0.104-2.95 0.211-2.76 0.408-4.36 1.13-6.8 2.41-2.8 0.776-5.61 1.45-8.44 2.12-2.58 0.677-2.58 0.677-4.09 2.41-3.32 3.3-8.73 2.58-13.1 2.58-1.27-0.00774-1.27-0.00774-2.57-0.0156-0.881-0.00141-1.76-0.00283-2.67-0.00429-2.8-0.00558-5.6-0.0181-8.41-0.0309-1.9-0.00502-3.81-0.00958-5.71-0.0137-4.66-0.011-9.32-0.0283-14-0.0488v-1h6v-2c1.46-0.112 1.46-0.112 2.95-0.227 40.2-3.54 76.7-16.9 109-40.8 0.816-0.598 1.63-1.2 2.47-1.81 9.37-7.08 18.1-15.1 25.5-24.2 0.672-0.795 1.34-1.59 2.04-2.41 9.36-11.2 17.8-22.5 24.5-35.5 5.94-11.3 5.94-11.3 10.7-10.9z" fill="#D1E590"/>
<path transform="translate(740,423)" d="m0 0c0.559 0.193 1.12 0.387 1.7 0.586 6.36 2.07 12.6 3.08 19.2 3.79 3.19 0.642 4.72 1.47 7.1 3.62-0.499 1.07-0.998 2.14-1.51 3.25-6.52 14.2-12.4 28.6-18.2 43.1-1.54 3.84-3.11 7.67-4.71 11.5-1.96 4.69-3.81 9.4-5.57 14.2-0.268 0.711-0.536 1.42-0.812 2.16-4.52 12.5-4.61 24.7-4.09 37.7 0.341 10.2-1.25 16.7-8.19 24.4-8.15 7.43-16.7 11.1-27.6 11.1-0.759 0.0245-1.52 0.049-2.3 0.0742-5.5 0.0291-5.5 0.0291-7.97-2.29-1.95-4.04-2.11-6.86-1.79-11.3 0.067-1.08 0.134-2.15 0.203-3.26 1.2-7.96 4.36-14.6 8.36-21.5 0.897-1.58 1.79-3.17 2.69-4.75 0.431-0.754 0.861-1.51 1.31-2.29 2.47-4.33 4.84-8.7 7.19-13.1 0.525-0.949 1.05-1.9 1.59-2.88 4.12-7.73 8.85-16.9 6.41-25.8-2.73-3.25-4.75-5.03-9.04-5.69-9.45-0.504-15.4 4.39-22.4 10.2-2.44 2.02-4.93 3.95-7.44 5.88-9.04 7.25-16.8 15.6-24 24.7-1.98 2.46-4.03 4.81-6.14 7.15-2.74 3.04-5.34 6.16-7.88 9.38-9.62 12.1-19.2 23.9-35.1 27.1-5.68 0.371-9.62-1.46-14-5-1.36-2.57-2.37-4.8-3.31-7.5-0.251-0.664-0.501-1.33-0.76-2.01-6.23-16.7-0.61-33.8 6.2-49.6 2.37-5 5.57-9.43 8.87-13.8 0.601-0.822 1.2-1.64 1.82-2.49 10.5-14 23.4-22.1 40.8-25.2 7.22-0.955 13.1-0.107 20.1 1.93 8.93 2.05 18.2 2.02 27.3 2.13 1.21 0.0374 2.41 0.0748 3.66 0.113 8.06 0.0788 13.5-1.15 20.3-5.49 1.02-0.634 2.05-1.27 3.1-1.92 11.8-8.58 22.5-20.1 24.9-35.1v-3z" fill="#FCD08F"/>
<path transform="translate(1017 448)" d="m0 0c2.8 0.963 5.54 2 8.25 3.19 3.18 1.48 3.18 1.48 6.16 2.17 3.91 1.57 6.23 3.93 8.97 7.02 0.517 0.579 1.03 1.16 1.57 1.75 9.21 10.6 14.5 20.3 17.6 34 0.321 1.17 0.642 2.34 0.973 3.54 0.66 0.33 1.32 0.66 2 1v2h2c-3.31 10.9-8.02 21.3-13.3 31.4-5.07 9.92-8.76 20.5-12.7 30.9-0.98 2.59-2 5.16-3.03 7.73-0.33-0.99-0.66-1.98-1-3-1.33-0.349-2.66-0.68-4-1-3.28-2.73-5.69-5.62-6.62-9.81 0.583-2.97 1.45-5.29 2.62-8.06 2.31-5.46 3.29-9.9 1-15.6-2.54-1.9-4.66-2.11-7.8-1.97-3.34 0.718-5.79 2.41-8.54 4.38-1.66 1.09-1.66 1.09-3.66 1.09-0.287 0.582-0.575 1.16-0.871 1.77-8.92 17.7-19.4 33.2-39.1 39.7-6.11 1.27-12.2-0.694-17.4-3.95-6.2-5.01-10.6-11.6-11.7-19.6-0.656-11.1-0.269-21.3 3-32 0.472-2.06 0.93-4.12 1.38-6.19 2.6-11.3 5.77-22.3 10.5-32.9 1.23-3.01 2.11-6 2.98-9.12 1.6-5.41 3.74-10.3 6.25-15.4 0.341-0.687 0.681-1.37 1.03-2.08 1.63-3.18 3.13-5.99 5.91-8.29v2c1.47-0.524 1.47-0.524 2.96-1.06 7.07-2.47 13.5-4.43 21-4.94 6.62-3.31 16.7-0.777 23.4 1.38z" fill="#FDFDFD"/>
<path transform="translate(387 310)" d="m0 0c2.82 1.2 4.41 2.93 6.53 5.14 0.788 0.815 1.58 1.63 2.39 2.47 0.718 0.753 1.44 1.51 2.18 2.28l5 5c0.743 0.722 1.49 1.44 2.25 2.19 2.44 2.5 4.75 5.07 7.06 7.69 3.96 4.43 8.14 8.31 12.7 12.1 1.63 1.41 3.26 2.83 4.88 4.25 1.11 0.967 1.11 0.967 2.24 1.95 1.88 1.8 1.88 1.8 3.88 4.8-0.24 4.42-2.09 6.72-4.94 10-1.23 1.45-1.23 1.45-2.48 2.93-0.642 0.758-0.642 0.758-1.3 1.53-6.93 8.26-13 17-18.9 26-2.84 4.32-5.77 8.49-8.9 12.6-2.48 3.27-3.78 5.69-4.62 9.69-0.888 3.11-1.52 4.05-4.24 5.91-2.2 1.12-4.42 2.21-6.64 3.28-21.7 10.8-42.8 30.3-59.5 47.7-1.45 1.49-2.94 2.93-4.44 4.37h-2c-0.33 0.99-0.66 1.98-1 3-1.43 1.4-1.43 1.4-3.31 2.94-4.49 3.77-8.54 7.9-12.6 12.2-1.32 1.36-2.72 2.64-4.13 3.91h-3v-2h-2c-0.23-5.88 0.419-10.6 2.19-16.2 0.23-0.746 0.46-1.49 0.697-2.26 3.75-12 8.65-23 14.3-34.2 2.84-5.75 4.85-11 5.83-17.3-0.495-0.99-0.495-0.99-1-2 0.447-1.85 0.447-1.85 1.24-4.07 0.284-0.807 0.569-1.61 0.862-2.45 0.445-1.23 0.445-1.23 0.9-2.49 0.257-0.735 0.514-1.47 0.779-2.23 8.57-24.4 19.6-47.4 34.2-68.8 0.455-0.671 0.91-1.34 1.38-2.03 6.69-9.82 13.8-19 21.6-28 0.705-0.828 1.41-1.66 2.14-2.51 6.47-7.57 6.47-7.57 9.77-7.38z" fill="#D1E590"/>
<path transform="translate(646 864)" d="m0 0c2.95 1.34 5.47 3 8.06 4.94v2c1.07 0.356 1.07 0.356 2.17 0.719 3.3 1.49 5.45 3.37 8.14 5.78 6.44 5.57 13.4 9.99 20.7 14.3 1.86 1.11 3.7 2.23 5.54 3.37 6.91 4.14 13.6 7.27 21.3 9.73 4.89 1.64 4.89 1.64 6.42 4.19 0.242 0.624 0.485 1.25 0.734 1.89 1.49 0.495 1.49 0.495 3 1-1.04 0.0606-2.07 0.121-3.14 0.184-1.37 0.0844-2.74 0.169-4.11 0.254-0.682 0.0393-1.36 0.0786-2.07 0.119-3.33 0.21-6.49 0.463-9.68 1.44 1.65 0.66 3.3 1.32 5 2-0.66 0.99-1.32 1.98-2 3 0.959 2.33 0.959 2.33 4 4l-2 1v2c2.64 0.66 5.28 1.32 8 2v2c0.619 0.247 1.24 0.495 1.88 0.75 2.48 1.46 3.08 2.63 4.12 5.25h2v6c-5.44 0.99-5.44 0.99-11 2v2h2c2.09 3.4 2.26 6.04 2 10-0.33 0.66-0.66 1.32-1 2h2v2c2.31 0.66 4.62 1.32 7 2v2c-3.15-0.699-6.03-1.76-9-3v2h2v2c2.31 0.66 4.62 1.32 7 2v2c0.619 0.124 1.24 0.247 1.88 0.375 2.12 0.625 2.12 0.625 4.12 2.62v-4c2.96 0.613 4.38 1.25 7 3 0.33-0.99 0.66-1.98 1-3 0.519 0.41 1.04 0.82 1.57 1.24 3.67 2.83 6.94 5.36 11.4 6.76v6c0.99 0.33 1.98 0.66 3 1v2h6v-2h-4v-6h6v5h2.88 8.12c0.981 3.05 0.981 4.95 0 8 1.98-0.348 1.98-0.348 4-1 0.33-0.66 0.66-1.32 1-2h2c-0.33-0.66-0.66-1.32-1-2 6.93-0.99 6.93-0.99 14-2 0.33-1.65 0.66-3.3 1-5 2.04 1.01 4.06 2.03 6.07 3.11 0.678 0.357 1.36 0.714 2.05 1.08 0.683 0.365 1.37 0.73 2.07 1.11 0.596 0.233 1.19 0.467 1.8 0.707 0.66-0.33 1.32-0.66 2-1 2.55-0.0717 5.07-0.0931 7.62-0.0625 0.706 0.00451 1.41 0.00902 2.14 0.0137 1.74 0.0118 3.49 0.0297 5.23 0.0488 0.33 0.66 0.66 1.32 1 2h-10v2c5.28 0.33 10.6 0.66 16 1v-3h2v3c0.743-0.0206 1.48-0.0412 2.25-0.0625 2.49 0.0565 4.36 0.466 6.75 1.06 1.67 0.0379 3.33 0.0463 5 0-0.33 0.99-0.66 1.98-1 3-3.02 1.21-6.35 1.31-9.56 1.68-2.83 0.366-5.63 0.846-8.44 1.32-6.46 1.02-12.9 1.44-19.4 1.75-3.52 0.173-3.52 0.173-6.54 0.766-4.07 0.632-8.04 0.626-12.2 0.605-0.79 0.00387-1.58 0.00773-2.39 0.0117-4.02-0.00674-7.6-0.337-11.5-1.14-2.33-0.143-4.66-0.217-6.99-0.291-7.43-0.238-14.2-0.656-21.3-2.97-3.32-0.902-6.54-1.17-9.97-1.49-10-1.03-19.4-4.29-29-7.37-4.73-1.5-9.51-2.85-14.3-4.19-4.34-1.25-8.38-2.84-12.5-4.69-0.685-0.295-1.37-0.59-2.07-0.894-30.9-13.4-62.5-33.7-84.9-59.1-1-3-1-3-0.285-4.8 4.01-6.41 9.09-10.7 15-15.3 2.63-2.13 4.95-4.45 7.31-6.88 1.15-1.15 2.3-2.29 3.44-3.44 1.87-1.88 3.73-3.77 5.59-5.66 1.49-1.51 2.98-3.02 4.47-4.52 0.746-0.763 1.49-1.53 2.26-2.31 0.728-0.735 1.46-1.47 2.21-2.23 0.981-0.997 0.981-0.997 1.98-2.01 5.48-4.87 5.48-4.87 8.99-4.76z" fill="#7DACD6"/>
<path transform="translate(871,733)" d="m0 0c2.64 0.33 5.28 0.66 8 1v3c0.743 0.0206 1.49 0.0412 2.25 0.0625 3.11 1.06 3.46 1.59 5.06 4.31 1.69 3.62 1.69 3.62 1.69 6.62h6c-0.66 0.33-1.32 0.66-2 1v4h2c0.33-1.32 0.66-2.64 1-4 1.32-0.33 2.64-0.66 4-1-0.66 0.33-1.32 0.66-2 1v4h2c-0.75 2.88-0.75 2.88-2 6-1.33 0.667-2.67 1.33-4 2-1.29 3.04-1.29 3.04-2 6h-2v-4c-0.454 0.66-0.908 1.32-1.38 2-0.804 0.99-0.804 0.99-1.62 2h-2v-4c-4.26 2.09-4.26 2.09-6.74 5.91-0.3 1.4-0.576 2.81-0.828 4.21-0.434 1.88-0.434 1.88-2.06 3.94-2.06 2.9-1.57 5.49-1.38 8.94 2.45 0.871 3.68 1.1 6.18 0.293 0.744-0.365 1.49-0.73 2.25-1.11 0.786-0.374 1.57-0.748 2.38-1.13 0.719-0.348 1.44-0.696 2.18-1.05 2.99-1.26 5.84-2.3 9-3-0.217 0.742-0.217 0.742-0.438 1.5-0.782 3.48-1.15 6.96-1.56 10.5-0.99 0.33-1.98 0.66-3 1v2c-2 1-3.83 1.49-6 2-0.33 1.32-0.66 2.64-1 4-0.949 0.0825-1.9 0.165-2.88 0.25-3.19 0.378-3.19 0.378-4.25 2.56-0.289 0.722-0.577 1.44-0.875 2.19-0.681 0.66-1.36 1.32-2.06 2-2.11 1.8-2.11 1.8-2.31 4.12-0.206 0.619-0.413 1.24-0.625 1.88-3.06 1.25-3.06 1.25-6 2 0.33 0.66 0.66 1.32 1 2-0.638 0.049-1.28 0.098-1.93 0.148-1.24 0.112-1.24 0.112-2.5 0.227-0.824 0.0696-1.65 0.139-2.5 0.211-1.02 0.205-1.02 0.205-2.07 0.414-0.33 0.66-0.66 1.32-1 2-1.98 0.727-3.98 1.4-6 2-0.33-0.99-0.66-1.98-1-3-0.639 0.639-1.28 1.28-1.94 1.94l-3.06 3.06c1.32 0.33 2.64 0.66 4 1h-3c-0.33 0.99-0.66 1.98-1 3-3.21 1.42-5.61 2.01-9.12 1.94-3.33 0.0725-4.47 0.841-6.88 3.06v-2c-3.12 1.17-6.05 2.53-9 4.06-2.99 1.52-5.64 2.52-9 2.94v2c-0.99 0.495-0.99 0.495-2 1 1.49 0.99 1.49 0.99 3 2-1.65 0.99-3.3 1.98-5 3 2.97 0.33 5.94 0.66 9 1-0.33 0.66-0.66 1.32-1 2-9.86 2.19-20 2.31-30 2-1.23-0.018-2.45-0.0361-3.71-0.0547-21.1-0.754-42.2-10.9-59.3-22.9-0.568-0.398-1.14-0.795-1.72-1.2-4.13-2.89-8.22-5.81-12.3-8.8-0.941-0.656-1.88-1.31-2.85-1.99-2.48-2.33-2.87-3.67-3.15-7.01 1.49-0.744 2.98-1.49 4.47-2.23 1.4-0.698 2.79-1.4 4.18-2.1 4.25-2.14 8.52-4.24 12.8-6.31 12.6-6.13 24.7-12.8 36.6-20.1 1.08-0.654 2.15-1.31 3.26-1.98 0.947-0.583 1.89-1.17 2.87-1.77 4.51-2.44 8.4-3.93 13.5-3.19 0.758 0.0993 1.52 0.199 2.3 0.301 1.95 0.387 1.95 0.387 3.95 1.39 0.414 2.07 0.414 2.07 0.625 4.56 0.112 1.24 0.112 1.24 0.227 2.5 0.049 0.638 0.098 1.28 0.148 1.93 0.598-0.495 1.2-0.99 1.81-1.5 4.01-1.89 7.1-1.69 11.5-1.51 2.72 0.00781 5.08-0.371 7.72-0.992-0.33 1.32-0.66 2.64-1 4h2c0.99 0.526 0.99 0.526 2 1.06 0.66 0.309 1.32 0.619 2 0.938 0.66-0.33 1.32-0.66 2-1 1.49 0.495 1.49 0.495 3 1l1-2h4v2h3v3h2c-0.33-1.65-0.66-3.3-1-5 5.28 0.99 10.6 1.98 16 3 0 2 0 2-1.5 3.62-0.743 0.681-0.743 0.681-1.5 1.38h5c-0.0232-0.822-0.0464-1.64-0.0703-2.49-0.144-8.9 0.251-17.3 4.07-25.5h2v-2c1.09-0.392 2.19-0.784 3.31-1.19 3.64-1.53 4.87-3.28 6.69-6.81h2c0.289-0.722 0.577-1.44 0.875-2.19 1.04-2.6 2.08-5.21 3.12-7.81h2v-2h2c0.66-2.64 1.32-5.28 2-8z" fill="#D1E594"/>
<path transform="translate(1275,534)" d="m0 0c3.88 1.88 3.88 1.88 5 3 0.592 7.98-0.0118 15.1-2.21 22.8-1.24 5.06-1.67 10.2-2.16 15.4-0.587 3.63-1.54 6.5-2.89 9.88-0.922 2.5-1.45 5.05-1.96 7.66-3.85 19.4-13.7 36.6-23.8 53.3-0.644 1.07-0.644 1.07-1.3 2.17-9.73 16.1-20.1 31.8-32.7 45.8-0.901 1.07-1.8 2.13-2.7 3.2-0.872 1.02-1.74 2.03-2.62 3.05-0.759 0.892-1.52 1.78-2.3 2.7-2.9 2.49-4.58 3.02-8.39 3.05-11.9-5.88-22.8-20.2-31.4-30.1-2.83-3.26-5.78-6.41-8.72-9.57-8.92-9.66-8.92-9.66-8.92-13.3 2.73-5.22 6.91-9.27 10.9-13.6 2.36-2.68 4.28-5.36 6.13-8.41-1.48-0.495-1.48-0.495-3-1 1.04-0.485 2.08-0.969 3.16-1.47 3.84-1.79 7.67-3.6 11.5-5.42 1.47-0.697 2.94-1.39 4.41-2.08 23.6-11.1 45.1-26.2 63.5-44.6 1.39-1.39 2.8-2.77 4.25-4.11 11.5-10.8 19.2-24.3 26.1-38.3z" fill="#87D2FC"/>
<path transform="translate(740,423)" d="m0 0c0.559 0.193 1.12 0.387 1.7 0.586 6.36 2.07 12.6 3.08 19.2 3.79 3.19 0.642 4.72 1.47 7.1 3.62-0.499 1.07-0.998 2.14-1.51 3.25-6.52 14.2-12.4 28.6-18.2 43.1-1.54 3.84-3.11 7.67-4.71 11.5-1.96 4.69-3.81 9.4-5.57 14.2-0.268 0.711-0.536 1.42-0.812 2.16-4.52 12.5-4.61 24.7-4.09 37.7 0.341 10.2-1.25 16.7-8.19 24.4-8.15 7.43-16.7 11.1-27.6 11.1-0.759 0.0245-1.52 0.049-2.3 0.0742-5.5 0.0291-5.5 0.0291-7.97-2.29-1.95-4.04-2.11-6.86-1.79-11.3 0.067-1.08 0.134-2.15 0.203-3.26 1.2-7.96 4.36-14.6 8.36-21.5 0.897-1.58 1.79-3.17 2.69-4.75 0.431-0.754 0.861-1.51 1.31-2.29 2.47-4.33 4.84-8.7 7.19-13.1 0.525-0.949 1.05-1.9 1.59-2.88 4.12-7.73 8.85-16.9 6.41-25.8-3.05-3.62-5.56-5.25-10.3-5.67-1.72 0.0522-1.72 0.0522-3.48 0.105-1.16 0.0271-2.32 0.0541-3.52 0.082-0.88 0.0348-1.76 0.0696-2.67 0.105v-2h-2c-1.52-1.57-1.52-1.57-3.25-3.69-2.25-2.67-4.45-5.02-7.19-7.19-1.27-1.05-1.27-1.05-2.56-2.12v-2c0.675-0.00411 1.35-0.00822 2.04-0.0125 3.11-0.0333 6.22-0.104 9.33-0.175 1.06-0.0058 2.12-0.0116 3.21-0.0176 13.1-0.361 23.3-7.06 32.6-15.9 7.63-8.13 14.8-18.4 14.8-29.9z" fill="#FDFDFD"/>
<path transform="translate(916,409)" d="m0 0c0.0864 0.615 0.173 1.23 0.262 1.86 0.824 5.07 0.824 5.07 3.74 9.14 3.56 1.19 6.89 1.54 10.6 1.82 2.52 0.194 4.92 0.61 7.38 1.18v2h2c-0.427 6.14-2.46 10.1-5.69 15.3-0.456 0.753-0.912 1.51-1.38 2.28-1.3 2.14-2.61 4.27-3.93 6.41-8.89 14.6-17.8 29.5-24 45.5-1.06 2.65-2.23 5.21-3.43 7.8-3.35 7.29-6.25 14.8-8.79 22.4-5.09 15-14.8 36.7-28.8 45.3-7.69 3.75-15.5 5.3-24 4-2.35-1.28-2.35-1.28-4-3-1.91-15.1 7.4-27.8 16.2-39.1 5.24-6.62 10.6-12.9 16.7-18.7 10.1-10.2 20.5-22.5 20.5-37.3 5.64e-4 -0.752 0.00113-1.5 0.00171-2.28-0.121-6.14-1.42-11.1-4.38-16.5-0.33-0.66-0.66-1.32-1-2-1.64-0.722-3.31-1.39-5-2 2.28-16.8 16.8-32.3 29.5-42.9 2.89-2.14 4.1-2.12 7.49-1.1z" fill="#78A9D7"/>
<path transform="translate(646 864)" d="m0 0c2.95 1.34 5.47 3 8.06 4.94v2h2v3h2c0.433 0.763 0.866 1.53 1.31 2.31 1.89 3.02 3.64 3.96 6.69 5.69v2c1.65 0.33 3.3 0.66 5 1-0.33 0.66-0.66 1.32-1 2-6.93-0.495-6.93-0.495-14-1 2.05 4.1 4.25 7.44 7.69 10.5 1.77 2.02 1.96 3.88 2.31 6.5h-2v2c1.49 0.495 1.49 0.495 3 1l-1 2h-2c-0.144 0.598-0.289 1.2-0.438 1.81-0.45 1.75-0.991 3.47-1.56 5.19h-2v-2h-3v2h-2v-2h-4v2h-3v2h2v2h2c0.66 0.99 1.32 1.98 2 3 0.99-0.99 1.98-1.98 3-3 4 6.5 4 6.5 4 11h3c3.62 5.37 4.16 7.5 3 14 0.448 2.46 1.18 4.63 2 7h3v2h2v3c1.65 0.33 3.3 0.66 5 1 0.33 1.32 0.66 2.64 1 4h3c0.33 1.32 0.66 2.64 1 4l-4-2v2c1.98 0.495 1.98 0.495 4 1v2c-1.65-0.33-3.3-0.66-5-1v3c1.49 0.495 1.49 0.495 3 1-1.32 0.33-2.64 0.66-4 1 0.66 0.66 1.32 1.32 2 2-6.35-0.404-11.3-3.58-16.7-6.62-1.49-0.826-1.49-0.826-3-1.67-59.9-33.5-59.9-33.5-66.3-52.7 3-7.53 9.54-12.3 15.7-17.1 2.63-2.13 4.95-4.45 7.31-6.88 1.15-1.15 2.3-2.29 3.44-3.44 1.87-1.88 3.73-3.77 5.59-5.66 1.49-1.51 2.98-3.02 4.47-4.52 0.746-0.763 1.49-1.53 2.26-2.31 0.728-0.735 1.46-1.47 2.21-2.23 0.981-0.997 0.981-0.997 1.98-2.01 5.48-4.87 5.48-4.87 8.99-4.76z" fill="#7DADDC"/>
<path transform="translate(1025,562)" d="m0 0c0.495 0.99 0.495 0.99 1 2 0.639 0.309 1.28 0.619 1.94 0.938 2.06 1.06 2.06 1.06 4.06 4.06 0.99 0.33 1.98 0.66 3 1 0.238 4.71-0.528 8.25-2.08 12.7-0.215 0.627-0.43 1.25-0.651 1.9-0.685 1.99-1.38 3.98-2.08 5.97-2.94 8.39-5.64 16.7-7.51 25.4-0.65 2.91-1.43 5.75-2.26 8.61-1.57 5.67-2.43 11.3-3.11 17.2-0.188 1.6-0.188 1.6-0.379 3.23-0.828 7.65-1.25 15.3-1.31 23-0.0138 0.983-0.0276 1.97-0.0417 2.98 0.00604 0.903 0.0121 1.81 0.0183 2.74 0.00338 0.794 0.00677 1.59 0.0103 2.41 0.128 0.641 0.256 1.28 0.388 1.94 2.76 2.31 2.76 2.31 5.53 1.68 1.47-0.398 1.47-0.398 2.97-0.805 1.06-0.287 2.13-0.575 3.23-0.871 3.1-0.952 6.12-2.03 9.15-3.19 3.86-1.47 6.93-2.27 11.1-1.81-1.48 0.495-1.48 0.495-3 1 0.495 3.47 0.495 3.47 1 7h-2v15c1.98-0.33 3.96-0.66 6-1 2.38 0.438 2.38 0.438 4 1v2c-3.63 0.33-7.26 0.66-11 1-0.33-0.99-0.66-1.98-1-3-5.06 0.482-7.85 2.17-12 5-2.88 0.75-2.88 0.75-5 1v2c-1.67 1.67-3.33 3.33-5 5-1.3 2.17-1.3 2.17-2 4h-3v2c-0.605 0.0142-1.21 0.0284-1.83 0.043-2.55 0.835-2.55 0.835-3.62 4.2-0.43 1.35-0.842 2.71-1.24 4.07-0.212 0.677-0.424 1.35-0.643 2.05-0.988 3.19-1.91 6.39-2.67 9.63-0.333 1.33-0.667 2.67-1 4-0.99-0.33-1.98-0.66-3-1-0.73-2.07-0.73-2.07-1.19-4.56-0.159-0.826-0.317-1.65-0.48-2.5-0.11-0.638-0.219-1.28-0.332-1.93h-1c0.00524-1.13 0.0105-2.26 0.0159-3.42 0.0181-4.2 0.0296-8.39 0.0391-12.6 0.00503-1.82 0.0118-3.63 0.0205-5.45 0.0121-2.61 0.0178-5.22 0.0222-7.83 0.00516-0.811 0.0103-1.62 0.0156-2.46 3.58e-4 -3.6-0.208-6.78-1.11-10.2-0.148-2.1-0.271-4.21-0.375-6.31-0.427-6.05-1.49-10.2-4.66-15.4-1.11-2.64-1.42-5.17-1.75-8-1.18-9.57-4.11-17.7-8.17-26.4-0.587-1.26-0.587-1.26-1.19-2.55-0.358-0.744-0.716-1.49-1.08-2.26-0.779-2.1-0.779-2.1-0.779-6.1 1.93-1.72 3.77-3.16 5.88-4.62 17.1-12.6 28-29.4 37.1-48.3 1.04-2.06 1.04-2.06 3.04-5.06z" fill="#7DACD6"/>
<path transform="translate(954,485)" d="m0 0c5.82 1.28 9.36 4.44 13 9v2c0.577 0.268 1.15 0.536 1.75 0.812 2.31 1.22 4.27 2.49 6.25 4.19v2h2v2c0.557 0.206 1.11 0.413 1.69 0.625 2.56 1.52 4 3.36 5.84 5.67 1.65 1.91 3.44 3.5 5.35 5.14 6 5.14 11.2 10.4 15.8 16.9 1.43 1.97 1.43 1.97 4.36 3.7v2h-2c-0.287 0.582-0.575 1.16-0.871 1.77-8.92 17.7-19.4 33.2-39.1 39.7-6.11 1.27-12.2-0.694-17.4-3.95-6.2-5.01-10.6-11.6-11.7-19.6-0.656-11.1-0.269-21.3 3-32 0.472-2.06 0.93-4.12 1.38-6.19 2.65-11.5 5.86-23 10.6-33.8z" fill="#78A8D7"/>
<path transform="translate(1091,411)" d="m0 0c3.64 1.57 6.26 3.8 9.19 6.44 1.32 1.17 1.32 1.17 2.67 2.37 2.14 2.19 2.14 2.19 3.14 5.19 0.825 0.309 1.65 0.619 2.5 0.938 2.5 1.06 2.5 1.06 3.28 2.91 0.271 2.68-0.247 3.46-1.81 5.62-0.458 0.647-0.917 1.29-1.39 1.96-0.502 0.683-1 1.37-1.52 2.07-1.03 1.45-2.06 2.89-3.09 4.34-0.51 0.71-1.02 1.42-1.55 2.15-2.57 3.61-4.99 7.31-7.43 11-1.38 2.07-2.77 4.12-4.19 6.16-7.83 11.4-14.6 23.4-21.4 35.4-1.08 1.87-2.25 3.69-3.45 5.49h-3v-2c-1.48-0.495-1.48-0.495-3-1-0.876-2.8-1.59-5.52-2.25-8.38-3.82-14.8-13.1-25.9-23.8-36.6-1.56-0.537-3.15-1.01-4.75-1.44-3.05-0.86-5.49-1.69-8.31-3.19-3.37-1.58-6.17-1.89-9.84-2.19-2.09-0.184-2.09-0.184-4.66-0.746-9.59-1.72-18.4 1.04-27.4 3.83-3.1 0.939-5.75 1.73-9.01 1.73-1.18-3.54-0.513-4.68 1.04-7.94 0.315-0.619 0.63-1.24 0.955-1.87 0.32-0.631 0.641-1.26 0.971-1.91 4.51-8.48 10-12 19-14.9 5.36-1.47 10.1-1.31 15.6-0.691 2.57 0.262 5.08 0.438 7.66 0.539 0.724 0.0312 1.45 0.0624 2.2 0.0945 1.43 0.0586 2.86 0.107 4.3 0.145 1.98 0.0925 1.98 0.0925 5.26 0.569 2.72 4.08 3.01 8.35 3.68 13.1 0.742 4.55 1.62 7.07 5.32 9.89 5.55 2.65 10.5 2.19 16.2 0.246 18.3-7.64 29.1-22.6 38.8-39.2z" fill="#78A9D8"/>
<path transform="translate(1129,475)" d="m0 0h2c4.6 9.62 5.34 19.1 5.25 29.6-0.0123 1.72-0.0123 1.72-0.0249 3.48-0.348 26.6-7.7 51.8-22.8 73.9-1.72 2.51-3.29 5.1-4.88 7.7-2.81 4.4-5.37 8.08-9.5 11.3-2.43 0.129-2.43 0.129-5-1-1.71-2.43-2.83-5.09-4-7.81-2.3-5.27-4.03-8.9-9-12.2 1.18-7.68 3.52-14.7 6.24-22 0.816-2.19 1.61-4.4 2.4-6.6 6.19-17.2 13.6-33.4 22.4-49.4 0.4-0.739 0.801-1.48 1.21-2.24 10.7-19.7 10.7-19.7 15.8-24.8z" fill="#7CADDC"/>
<path transform="translate(1138,348)" d="m0 0c0.856 1.58 1.71 3.16 2.52 4.75 2.4 3.64 5.61 6.53 8.77 9.51 1.27 1.21 2.49 2.47 3.71 3.73v2c1.48 0.495 1.48 0.495 3 1v2c1.48 0.495 1.48 0.495 3 1-1.25 1.13-2.5 2.25-3.75 3.38-1.04 0.94-1.04 0.94-2.11 1.9-2.14 1.73-2.14 1.73-4.28 2.7-2.4 1.32-2.73 2.55-3.86 5.02-1.33 1.75-2.69 3.48-4.06 5.19-6.09 7.71-11.5 15.9-17 24.1-3.45 5.14-6.87 10.1-11 14.8-5.31-2.6-8.49-5.43-12.2-9.98-2.2-2.52-4.65-4.55-7.29-6.6-5.18-4.98-4.22-12.7-4.48-19.4-0.0287-0.694-0.0574-1.39-0.0869-2.1-0.0766-2.11-0.125-4.22-0.163-6.33-0.0258-1.28-0.0516-2.55-0.0781-3.87 0.624-7.03 3.91-13.5 9.11-18.3 8.15-6.33 29.6-18.5 40.2-14.4z" fill="#FDFDFD"/>
<path transform="translate(524,583)" d="m0 0c0.66 0.33 1.32 0.66 2 1 0.323 1.76 0.556 3.53 0.75 5.31 1.48 9.77 6.02 19.6 13.8 26 1.71 1.22 3.45 2.35 5.23 3.47 0.578 0.385 1.16 0.771 1.75 1.17 7.81 4.99 16.2 6.17 25.3 4.58 12.4-2.81 23.1-8.98 34-15.2 1.8-1.02 3.6-2.03 5.4-3.05 1.62-0.91 3.24-1.83 4.85-2.74 2.58-1.37 5.14-2.5 7.87-3.52v2h2c0.147 0.727 0.294 1.45 0.445 2.2 1.57 7.02 3.87 12.9 7.35 19.2 1.21 2.59 1.21 2.59 1.21 6.59-1.5 1.63-1.5 1.63-3.56 3.12-0.661 0.498-1.32 0.995-2 1.51-22.2 12.5-57.2 8.83-80.8 2.46-14.2-4.09-27.1-8.65-38.6-18.1-0.779-0.636-0.779-0.636-1.57-1.29-2.95-2.44-5.84-4.89-8.43-7.71v-2c-0.66-0.33-1.32-0.66-2-1 3.24-3.26 6.47-6.52 9.72-9.77 1.1-1.11 2.2-2.22 3.31-3.33 1.58-1.59 3.17-3.18 4.75-4.77 0.493-0.498 0.986-0.996 1.49-1.51 3.51-3.51 3.51-3.51 5.73-4.62z" fill="#FCD190"/>
<path transform="translate(412,390)" d="m0 0c0 3.89-1.31 5.3-3.5 8.5-1.09 1.6-1.09 1.6-2.2 3.24-2.14 3.04-4.36 5.99-6.61 8.95-2.55 3.39-4.02 5.92-4.88 10.1-0.888 3.11-1.52 4.05-4.24 5.91-2.2 1.12-4.42 2.21-6.64 3.28-21.7 10.8-42.8 30.3-59.5 47.7-1.45 1.49-2.94 2.93-4.44 4.37h-2c-0.33 0.99-0.66 1.98-1 3-1.43 1.4-1.43 1.4-3.31 2.94-4.49 3.77-8.54 7.9-12.6 12.2-1.32 1.36-2.72 2.64-4.13 3.91h-3v-2h-2c-0.23-5.88 0.419-10.6 2.19-16.2 0.23-0.746 0.46-1.49 0.697-2.26 3.75-12 8.65-23 14.3-34.2 2.84-5.75 4.85-11 5.83-17.3-0.33-0.66-0.66-1.32-1-2 0.904-3.06 1.9-6 3-9 0.4-1.14 0.799-2.28 1.21-3.45 0.425-1.17 0.851-2.34 1.29-3.55 0.402-1.11 0.804-2.23 1.22-3.38 0.423-0.866 0.846-1.73 1.28-2.62 0.99-0.33 1.98-0.66 3-1 0.8 3.29 1.1 4.71 0 8 0.938 0.124 0.938 0.124 1.89 0.25 2.11 0.75 2.11 0.75 3.12 2.5 1.63 5.44 2.54 10.6 2.99 16.2h3.38 5.62c0.639-0.206 1.28-0.413 1.94-0.625 2.06-0.375 2.06-0.375 5.06 1.62 4.53-0.708 8.44-2.61 12.2-5.19 3.27-2.11 5.01-1.99 8.81-1.81l2-2c1.11-0.248 2.23-0.495 3.38-0.75 4.43-1.53 5.49-3.16 7.62-7.25v-2c2-2 2-2 3.75-2.81 5.86-3.09 8.45-6.31 11.2-12.2 0.99-0.33 1.98-0.66 3-1-1.65-0.33-3.3-0.66-5-1v-3c1.45 0.0309 1.45 0.0309 2.94 0.0625 2.94 0.294 2.94 0.294 4.06-1.06l-2-2c0.33-0.66 0.66-1.32 1-2h9c0.33-0.33 0.66-0.66 1-1z" fill="#D1E789"/>
<path transform="translate(877,607)" d="m0 0c1.84 0.043 1.84 0.043 4 1 1.85 2.8 1.85 2.8 3.62 6.31 0.886 1.73 0.886 1.73 1.79 3.49 0.912 1.84 1.81 3.69 2.65 5.56 1.38 2.42 3.38 2.63 5.93 3.64 3.63 3.12 5.39 5.56 7 10 1.29 2.33 2.62 4.62 3.98 6.91 1.02 2.09 1.02 2.09 1.02 5.09-0.551-0.737-0.551-0.737-1.11-1.49-2.7-2.16-4.67-1.81-8.07-1.7-1.63 0.0406-1.63 0.0406-3.29 0.082-0.831 0.0348-1.66 0.0696-2.52 0.105-0.33-0.99-0.66-1.98-1-3-6.6-2.24-12.3-2.01-19.2-1.34-2.66 0.236-5.21 0.385-7.88 0.422-0.673 0.0176-1.35 0.0353-2.04 0.0535-1.9 0.0458-3.79 0.069-5.69 0.0911-3.47 0.484-3.47 0.484-5.48 3.82-0.559 0.973-1.12 1.95-1.7 2.95h-2v2h-2c-0.33 1.32-0.66 2.64-1 4h-3c0.0412 0.763 0.0825 1.53 0.125 2.31-0.125 2.69-0.125 2.69-2.12 5.69 0.33 0.66 0.66 1.32 1 2-0.438 2.12-0.438 2.12-1 4h-2c-0.33-0.66-0.66-1.32-1-2l1 6c-4.23-1.41-6.69-4.35-9.44-7.81-1.61-1.41-1.61-1.41-4.3-1.68-3.93 0.589-5.12 2.03-7.49 5.11-0.479 0.66-0.958 1.32-1.45 2-0.512 0.672-1.02 1.34-1.55 2.04-1.07 1.4-2.13 2.81-3.18 4.23-2.46 3.29-4.99 6.51-7.52 9.74-0.436 0.567-0.872 1.13-1.32 1.72-2.7 3.47-5.49 6.7-8.74 9.66h-2c-0.875-2.12-0.875-2.12-1-5 1.38-1.74 2.87-3.12 4.55-4.57 1.71-1.48 1.71-1.48 2.45-4.43h2c-0.33-1.32-0.66-2.64-1-4 1.49-0.495 1.49-0.495 3-1 0.908-2.48 1-4.34 1-7 0.368-2.95 0.748-3.79 3.06-5.75 0.959-0.619 0.959-0.619 1.94-1.25v3l4-1c0.33-1.65 0.66-3.3 1-5h5v-9h3v-2h-7v-2c-3.47-0.495-3.47-0.495-7-1v-2c-1.32-0.33-2.64-0.66-4-1-0.33-1.32-0.66-2.64-1-4h-2v-5h-4v5h-1v-5c-1.36-0.217-1.36-0.217-2.75-0.438-2.46-0.427-4.84-0.913-7.25-1.56v-3c0.66-0.33 1.32-0.66 2-1-0.66-0.33-1.32-0.66-2-1 0.33-1.32 0.66-2.64 1-4 4.07-0.185 6.44 0.109 10 2 0.908 0.146 1.82 0.291 2.75 0.441 4.27 0.735 8.17 2.18 12.2 3.62 15.4 4.82 33 0.207 47-7.06 7.76-4.64 14.6-10.6 21-17z" fill="#D1E789"/>
<path transform="translate(1399 341)" d="m0 0c1.79-0.0387 1.79-0.0387 3.62-0.0781 3.67 0.357 5.47 1.11 8.38 3.33 4.43 6.64 2.5 17.9 1.57 25.5-2.56 12-10.1 22.1-20 29.2-7.11 4.52-13.8 7.16-22.3 5.92-5.99-1.8-10.8-6.56-14.2-11.7-2.9-6.31-3.03-12.4-1.12-19.1 2.67-6.88 6.24-12.4 11.1-17.9 0.784-0.887 1.57-1.77 2.38-2.69 9.15-8.06 18.4-12.4 30.6-12.6z" fill="#000100"/>
<path transform="translate(517,474)" d="m0 0c3.79 1.71 5.15 3.22 7 7 0.995 3.77 0.968 6.89 0.562 10.8-1.07 12.6-1.36 24.1 2.44 36.2 0.339 1.33 0.673 2.67 1 4-1.54 1.22-1.54 1.22-3.11 2.46-4.16 3.57-7.07 7.66-10.1 12.2-16.6 23.7-16.6 23.7-27.3 25.9-5.89-0.0846-5.89-0.0846-8.99-2.41-2.75-3.89-2.76-6.34-2.5-11.1 0.594-2.88 1.46-5.64 2.38-8.44 0.263-0.813 0.527-1.63 0.798-2.46 8.64-25.9 20.7-52.6 37.8-74.1z" fill="#FCD08F"/>
<path transform="translate(593,500)" d="m0 0c4.05 1.66 6.89 3.68 10.1 6.66 4.72 4.25 9.67 8.07 14.8 11.8 0.87 0.649 1.74 1.3 2.64 1.97 5.54 4.12 11.1 8.18 16.8 12.1 0.562 0.468 1.12 0.936 1.7 1.42v2l2 1c-24 29.8-24 29.8-40 33-5.68 0.371-9.62-1.46-14-5-1.36-2.57-2.37-4.8-3.31-7.5-0.251-0.664-0.501-1.33-0.76-2.01-5.72-15.4-1.33-29.4 4.13-44.2 0.368-1 0.368-1 0.743-2.02 1.34-3.48 2.77-6.38 5.19-9.23z" fill="#FDFDFD"/>
<path transform="translate(392 334)" d="m0 0c3.39 2.11 4.86 4.22 6.25 7.94 0.927 2.61 0.927 2.61 3.06 4.5 4.23 4.23 4.42 9.31 5 15 0.66-1.32 1.32-2.64 2-4 0.501 7.58-0.05 12.5-4 19h-3c-4.94 4.41-10.1 10.7-11.5 17.3-0.5 1.69-0.5 1.69-2.19 2.94-2.85 0.926-5.33 0.886-8.31 0.75v-4c-4.45 0.495-4.45 0.495-9 1-0.33 1.32-0.66 2.64-1 4h-4v-2h-2c-0.33-0.66-0.66-1.32-1-2h-3c-1.06-1.88-1.06-1.88-2-4 0.33-0.66 0.66-1.32 1-2-0.598 0.351-1.2 0.701-1.81 1.06-2.19 0.938-2.19 0.938-5.19-0.0625 0.33-0.99 0.66-1.98 1-3-0.66-0.66-1.32-1.32-2-2 0-3.11 0.23-5.18 2.41-7.5 1.48-1.23 3.03-2.37 4.59-3.5-0.66-0.33-1.32-0.66-2-1-0.722-1.64-1.39-3.31-2-5 1.32 0.33 2.64 0.66 4 1 0.495-2.97 0.495-2.97 1-6h2c-0.33-1.65-0.66-3.3-1-5 0.99-0.33 1.98-0.66 3-1 0.66 0.33 1.32 0.66 2 1l3-3c-0.99-0.33-1.98-0.66-3-1l2-2c-0.99-0.66-1.98-1.32-3-2-0.33 0.66-0.66 1.32-1 2l-2-2 2-2v-2.94c0-3.06 0-3.06 2-6.06 1.32 0.66 2.64 1.32 4 2 0.33-0.66 0.66-1.32 1-2 0.99 0.33 1.98 0.66 3 1v2c3.63-0.33 7.26-0.66 11-1v-4c5.23-3.16 5.23-3.16 8.69-2.44z" fill="#D1E594"/>
<path transform="translate(1478,630)" d="m0 0c2.96 9.18 0.904 19.1-3.25 27.5-7.69 13.6-18 21.6-32.7 26.5-6.65 1.61-14.8 2.67-21-0.75-4.4-3.3-7.55-5.81-9-11.2-0.607-5.75-0.263-10 3-15 3.42-3.79 6.49-6.03 11.1-8.12 0.619-0.281 1.24-0.562 1.88-0.851 9.14-4.08 18.5-7.74 27.7-11.5 4.54-1.83 9.02-3.74 13.5-5.78 3.18-1.36 5.63-2.35 8.79-0.768z" fill="#FDFDFD"/>
<path transform="translate(1057,309)" d="m0 0c8.84-1.11 15.3 2.45 23.1 6.12 3.89 1.8 7.9 3.33 11.9 4.88v2l4 1c-0.608 0.366-1.22 0.732-1.84 1.11-17.5 10.8-35.3 23.6-45.3 42-2.98 3.01-6.68 3.56-10.7 4.54-0.845 0.214-1.69 0.428-2.56 0.649-6.85 1.66-13.5 2.52-20.6 2.66-0.33-0.66-0.66-1.32-1-2 8.54-13.2 17.8-25.8 27.2-38.3 3.72-4.93 7.39-9.89 10.9-14.9 0.715-1.02 1.43-2.03 2.17-3.08 1.44-2.34 2.22-3.99 2.64-6.67z" fill="#FDFDFD"/>
<path transform="translate(382,577)" d="m0 0c8.91 3.72 13 15.6 17.2 23.7 6.09 11.7 12.8 22.8 20.8 33.3 1 1.33 2 2.67 3 4l-1 2c-1.33-1.14-1.33-1.14-2.69-2.31-3.22-2.68-6.57-4.81-10.3-6.69 0.33 0.66 0.66 1.32 1 2-1.65-0.66-3.3-1.32-5-2v-2c-0.598-0.268-1.2-0.536-1.81-0.812-2.17-1.18-3.46-2.46-5.19-4.19-1.49-0.495-1.49-0.495-3-1v-2c-2.52-0.0817-5.04-0.141-7.56-0.188-0.704-0.0251-1.41-0.0503-2.13-0.0762-5.14-0.071-8.58 1.08-13.3 3.26-2.87 0.512-2.87 0.512-5.44 0.688-1.3 0.0986-1.3 0.0986-2.62 0.199-0.961 0.0561-0.961 0.0561-1.94 0.113v2c-2.97 0.66-5.94 1.32-9 2-0.0619 0.722-0.124 1.44-0.188 2.19-1.09 3.78-2.79 5.33-5.81 7.81-3.31 1.31-3.31 1.31-6 2 0.99 1.32 1.98 2.64 3 4-1.49 0.495-1.49 0.495-3 1 0.33 1.32 0.66 2.64 1 4h-2c-11.8-21-11.8-21-10.6-27.3 0.184-0.571 0.369-1.14 0.559-1.73 0.825 0.33 1.65 0.66 2.5 1 5.25 1.5 9.05 2.28 14-0.285 2.64-1.78 5.1-3.68 7.55-5.71 0.657-0.532 1.31-1.06 1.99-1.61 11-9.93 18.4-24.8 26-37.4z" fill="#D1E789"/>
<path transform="translate(1025,562)" d="m0 0c0.495 0.99 0.495 0.99 1 2 0.639 0.309 1.28 0.619 1.94 0.938 2.06 1.06 2.06 1.06 4.06 4.06 0.99 0.33 1.98 0.66 3 1 0.238 4.71-0.528 8.25-2.08 12.7-0.215 0.627-0.43 1.25-0.651 1.9-0.685 1.99-1.38 3.98-2.08 5.97-2.96 8.46-5.7 16.8-7.56 25.6-0.613 2.76-1.37 5.43-2.19 8.13-2 7.09-2.66 14.4-3.44 21.7h-2v5c-1.98 0.99-1.98 0.99-4 2v2c-3 0-3 0-4.69-1.38-1.31-1.62-1.31-1.62-1.31-3.62-1.32-0.33-2.64-0.66-4-1v-2c-0.99-0.33-1.98-0.66-3-1-1.1-2.73-2-5.04-2-8-0.33-0.66-0.66-1.32-1-2 1.98 0.66 3.96 1.32 6 2-0.543-0.519-1.09-1.04-1.64-1.57-4.58-4.47-8.3-8.25-10.4-14.4-0.33 0.99-0.66 1.98-1 3h-2c-0.125-3.38-0.125-3.38 0-7l2-2c-0.66-0.33-1.32-0.66-2-1 0.785-0.701 1.57-1.4 2.38-2.12 9.47-8.52 17-16.9 23.6-27.9 0.791-1.27 0.791-1.27 1.6-2.57 3.06-4.98 5.79-10 8.32-15.3 1.08-2.13 1.08-2.13 3.08-5.13z" fill="#77A8D7"/>
<path transform="translate(360 500)" d="m0 0c0.548 0.24 1.1 0.48 1.66 0.727-0.559 5.25-2.32 9.15-4.72 13.8-0.561 1.1-0.561 1.1-1.13 2.23-0.798 1.57-1.6 3.14-2.4 4.71-2.09 4.07-4.14 8.16-6.2 12.2-0.603 1.2-0.603 1.2-1.22 2.42-4.4 8.75-8.59 17.6-12.3 26.6-0.32 0.775-0.64 1.55-0.97 2.35-4.74 11.7-7.8 23.3-10 35.7-8.76-7.74-12.2-20.8-13-32-0.104-1.47-0.104-1.47-0.211-2.97-0.219-6.12 0.809-10.4 3.21-16v-3c7.15-11.1 32.7-48.4 47.3-46.7z" fill="#D1E789"/>
<path transform="translate(865,517)" d="m0 0c0.33 0.66 0.66 1.32 1 2 1.32 0.689 2.66 1.35 4 2 1.73 1.16 3.46 2.33 5.19 3.5 4.97 3.21 8.99 4.64 14.8 5.5-1.42 6.37-4.29 11.3-7.69 16.9-0.505 0.847-1.01 1.69-1.53 2.57-6.47 10.7-12.5 19.6-24.7 23.8-5.84 1.43-13 2.46-18.5-0.52-1.65-1.72-1.65-1.72-2.15-5.66 1.01-18.9 16.5-37.3 29.5-50.1z" fill="#FDFDFD"/>
<path transform="translate(185,334)" d="m0 0c5.98 4.71 8.95 10.5 10 18-0.967-0.0954-1.93-0.191-2.93-0.289-13.5-1.15-22.1 0.818-34.1 7.29-0.755 0.33-1.51 0.66-2.29 1-2.06 0.953-2.06 0.953-2.71 4-0.762 0.753-1.52 1.51-2.31 2.28-7.96 8.04-12 19-14.7 29.7-3.59-1.9-5.58-3.27-7.25-7-0.315-0.681-0.629-1.36-0.953-2.06-3.85-9.35-1.22-17.1 2.43-26 6.18-14.2 15.6-23.7 29.8-29.8 8.69-2.91 16.9-1.11 25 2.88z" fill="#FDFDFD"/>
<path transform="translate(735,795)" d="m0 0c0.0412 1.01 0.0825 2.02 0.125 3.06 0.558 4.18 2.6 6.34 5.5 9.26 1.54 1.88 1.96 3.3 2.38 5.68h2c2.79 2.95 3.38 5.13 3.56 9.12 0.0609 3.91 0.0609 3.91 2.44 6.88 2.12 0.574 2.12 0.574 4.56 0.938 5 0.91 9.67 2.33 14.4 4.06v5c1.49 0.99 1.49 0.99 3 2-0.309 1.42-0.309 1.42-0.625 2.88-0.186 1.55-0.186 1.55-0.375 3.12 0.66 0.66 1.32 1.32 2 2-12.6 0.109-21.8-2.23-33-8-1.26-0.62-2.52-1.24-3.77-1.86-9.02-4.52-17.3-9.99-25.5-15.9-1.57-1.13-3.14-2.24-4.72-3.34-0.813-0.592-1.63-1.18-2.46-1.79-0.679-0.492-1.36-0.985-2.06-1.49-1.94-2.1-2.17-3.84-2.5-6.63 0.993-0.496 1.99-0.993 3.01-1.5 0.651-0.325 1.3-0.651 1.97-0.986 1.44-0.72 2.88-1.44 4.32-2.16 3.58-1.78 7.15-3.58 10.7-5.44 0.622-0.322 1.24-0.644 1.88-0.976 1.71-0.888 3.42-1.79 5.12-2.68 2.96-1.24 4.82-1.53 7.99-1.25z" fill="#D1E591"/>
<path transform="translate(714,498)" d="m0 0c4.43 4.29 5.27 6.42 5.56 12.6 0.149 9.11-1.99 17.7-4.19 26.5-0.248 1.01-0.248 1.01-0.502 2.03-2.21 8.86-5.04 17.2-8.64 25.6-1.59 4.17-2.01 7.81-2.24 12.2-1.94 1.94-5.3 1.26-7.88 1.31-1.26 0.0374-2.51 0.0748-3.8 0.113-3.32-0.426-3.32-0.426-5.2-2.26-2.07-4.02-2.18-6.84-1.87-11.3 0.067-1.08 0.134-2.15 0.203-3.26 1.2-7.96 4.36-14.6 8.36-21.5 0.897-1.58 1.79-3.17 2.69-4.75 0.431-0.754 0.861-1.51 1.31-2.29 2.47-4.33 4.85-8.69 7.19-13.1 0.525-0.984 1.05-1.97 1.59-2.98 3.22-6.21 5.7-12.2 7.41-19z" fill="#FCD08F"/>
<path transform="translate(1008 426)" d="m0 0c2.57 0.262 5.08 0.438 7.66 0.539 0.724 0.0312 1.45 0.0624 2.2 0.0945 1.43 0.0586 2.86 0.107 4.3 0.145 1.98 0.0925 1.98 0.0925 5.26 0.569 2.72 4.08 3.01 8.35 3.68 13.1 0.752 4.61 1.78 6.87 5.32 9.89v2c-6.29 1.37-10 0.893-15.7-2.01-3.08-1.34-5.95-1.6-9.28-1.84-1.99-0.148-1.99-0.148-4.55-0.711-9.59-1.72-18.4 1.04-27.4 3.83-3.1 0.939-5.75 1.73-9.01 1.73-1.18-3.54-0.513-4.68 1.04-7.94 0.315-0.619 0.63-1.24 0.955-1.87 0.32-0.631 0.641-1.26 0.971-1.91 4.51-8.48 10-12 19-14.9 5.36-1.47 10.1-1.31 15.6-0.691z" fill="#7CAEDD"/>
<path transform="translate(989,614)" d="m0 0v3c-0.99 0.495-0.99 0.495-2 1-0.407 2.32-0.744 4.66-1 7h2v-6c0.66-0.33 1.32-0.66 2-1-0.0619 0.928-0.124 1.86-0.188 2.81-0.135 3.12-0.135 3.12 1.5 4.75 0.835 0.712 0.835 0.712 1.69 1.44 0.433 0.742 0.866 1.49 1.31 2.25 2.2 3.59 4.9 6.62 7.69 9.75-1.98-0.66-3.96-1.32-6-2 0.66 0.99 1.32 1.98 2 3h-2c1.69 4.23 1.69 4.23 5 7v2c1.32 0.33 2.64 0.66 4 1v2c1.49 0.495 1.49 0.495 3 1v2h3v-2c0.99-0.66 1.98-1.32 3-2 0.73-2.56 0.73-2.56 1-5h1c-0.0105 0.938-0.0209 1.88-0.0317 2.84-0.0342 3.5-0.0592 7-0.0781 10.5-0.01 1.51-0.0236 3.02-0.041 4.53-0.0244 2.18-0.0356 4.36-0.0444 6.54-0.0105 1.31-0.0209 2.62-0.0317 3.97 0.223 3.56 0.934 6.31 2.23 9.62-2.08 0.553-3.84 1-6 1v2h-2v2c0.99 0.33 1.98 0.66 3 1-2.97-0.33-5.94-0.66-9-1-0.33 0.99-0.66 1.98-1 3v-2h-2c-0.33 0.66-0.66 1.32-1 2-2-1-2-1-2.6-2.67-0.493-2.88-0.629-5.72-0.773-8.64-0.427-6.05-1.49-10.2-4.66-15.4-1.11-2.64-1.42-5.17-1.75-8-1.18-9.57-4.11-17.7-8.17-26.4-0.391-0.843-0.782-1.69-1.19-2.55-0.358-0.744-0.716-1.49-1.08-2.26-0.779-2.1-0.779-2.1-0.779-6.1 3.04-2.95 6.01-4.63 10-6z" fill="#7CADDC"/>
<path transform="translate(776 597)" d="m0 0c0.557 0.268 1.11 0.536 1.69 0.812 0.098 0.941 0.196 1.88 0.297 2.85 1.05 9.31 1.05 9.31 5.7 17.1v2h2v4c-1.98 0.33-3.96 0.66-6 1v-2c-1.65 0.33-3.3 0.66-5 1v2c2.31 0.33 4.62 0.66 7 1-0.33 0.99-0.66 1.98-1 3-1.42-0.0309-1.42-0.0309-2.88-0.0625-3.03-0.163-3.03-0.163-5.12 1.06-0.33-0.66-0.66-1.32-1-2h-3c-0.33-0.33-0.66-0.66-1-1-2.01 0.287-4.01 0.619-6 1 0.33 1.32 0.66 2.64 1 4-1.49 0.495-1.49 0.495-3 1-2.88-6.62-2.88-6.62-4-10 1.07-1.83 2.16-3.65 3.34-5.41 2.4-3.75 4.52-7.66 6.63-11.6 5.67-10.2 5.67-10.2 10.3-9.82z" fill="#D1E789"/>
<path transform="translate(1270,439)" d="m0 0c3.65 3.21 4.1 6.89 5 11.5 0.336 1.64 0.675 3.27 1.02 4.91 0.247 1.19 0.247 1.19 0.498 2.4 0.611 2.75 1.41 5.43 2.24 8.13 1.54 5.37 1.54 10.5 1.25 16.1h-2v3h-2c-0.461-0.993-0.923-1.99-1.4-3.01-3.84-8.06-7.92-15.4-13.5-22.4-1.87-2.41-3.04-4.05-3.19-7.14 1.56-3.43 3.98-5.75 6.69-8.28 0.52-0.502 1.04-1 1.58-1.52 1.28-1.23 2.57-2.45 3.86-3.67z" fill="#87D2FC"/>
<path transform="translate(1214,519)" d="m0 0c5.33 6.6 7.66 11.2 7.41 19.8-1.17 9.23-5.63 17-12.4 23.2-3 2-3 2-5.19 1.62-0.598-0.206-1.2-0.413-1.81-0.625 0.129-10 3.3-18.8 6.56-28.2 0.527-1.54 1.05-3.08 1.58-4.62 1.27-3.74 2.56-7.47 3.86-11.2z" fill="#86D1FB"/>
<path transform="translate(954,485)" d="m0 0c5.82 1.28 9.36 4.44 13 9v2h2v5c-1.32 0.33-2.64 0.66-4 1v2h-2c-0.289 0.639-0.577 1.28-0.875 1.94-1.12 2.06-1.12 2.06-3.12 3.06-0.33 0.99-0.66 1.98-1 3-3.63 0.66-7.26 1.32-11 2-1.15-4.59-0.559-6.61 0.688-11.1 0.182-0.661 0.364-1.32 0.552-2 1.54-5.45 3.47-10.7 5.76-15.9z" fill="#7CADDC"/>
<path transform="translate(417,341)" d="m0 0c3.07 1.36 5.08 2.88 7.38 5.31 2.22 2.3 4.45 4.43 6.94 6.44 2.69 2.25 2.69 2.25 4.69 5.25-0.24 4.42-2.09 6.72-4.94 10-0.804 0.949-1.61 1.9-2.44 2.88-0.427 0.503-0.853 1.01-1.29 1.52-2.33 2.81-4.55 5.7-6.77 8.6-0.637 0.828-0.637 0.828-1.29 1.67-1.84 2.4-3.6 4.81-5.28 7.33-0.66-0.33-1.32-0.66-2-1 0.699-0.918 1.4-1.84 2.12-2.78 0.92-1.24 1.84-2.48 2.76-3.72 0.46-0.601 0.92-1.2 1.39-1.82 4.13-5.63 5.73-10.6 5.73-17.7-0.66 0.33-1.32 0.66-2 1-0.66-2.31-1.32-4.62-2-7h3c-0.33-0.99-0.66-1.98-1-3h2c-0.33-1.65-0.66-3.3-1-5-0.99-0.33-1.98-0.66-3-1-1.69-3.56-1.69-3.56-3-7z" fill="#D2E889"/>
<path transform="translate(298,474)" d="m0 0h2c0.33 2.64 0.66 5.28 1 8 0.66-1.32 1.32-2.64 2-4 0.313 1.71 0.625 3.42 0.938 5.12 0.174 0.951 0.348 1.9 0.527 2.88 0.265 1.48 0.265 1.48 0.535 2.99 0.412 1.52 0.412 1.52 0.832 3.06 0.168 2.94 0.168 2.94-1.6 5.49-0.82 0.766-1.64 1.53-2.48 2.32-0.81 0.781-1.62 1.56-2.45 2.37-2.3 1.76-2.3 1.76-5.3 1.76v-2h-2c-0.271-6.13 0.574-11 2.44-16.8 0.23-0.75 0.46-1.5 0.697-2.27 0.92-2.98 1.88-5.95 2.87-8.92z" fill="#FAFCFB"/>
<path transform="translate(974,920)" d="m0 0c1.21 2.43 1 4.33 1 7 0.99 0.33 1.98 0.66 3 1-2.08 1.8-4.16 3.59-6.25 5.38-0.88 0.762-0.88 0.762-1.78 1.54-2.85 2.44-5.46 4.64-8.97 6.09-0.99-0.66-1.98-1.32-3-2h2c1.41-2.38 1.41-2.38 2-5-1.32 0.33-2.64 0.66-4 1 0.66-0.33 1.32-0.66 2-1 1.64-2.87 2.8-5.92 4-9h2v-4c2.64-0.33 5.28-0.66 8-1z" fill="#78A9D7"/>
<path transform="translate(1091,411)" d="m0 0c3.43 1.51 5.96 3.52 8.75 6 0.799 0.701 1.6 1.4 2.42 2.12 1.83 1.88 1.83 1.88 1.83 3.88h-4c0.33 0.66 0.66 1.32 1 2h-9v-2h-4v2h-2c-0.684-1.67-0.684-1.67-1-4 1.21-2.58 1.21-2.58 2.94-5.25 0.566-0.892 1.13-1.78 1.71-2.7 0.445-0.675 0.889-1.35 1.35-2.05z" fill="#7CADDC"/>
<path transform="translate(1074,486)" d="m0 0c0.33 0.66 0.66 1.32 1 2-1.34 2.63-2.72 5.11-4.25 7.62-0.409 0.706-0.817 1.41-1.24 2.14-1.08 1.8-2.29 3.53-3.51 5.23h-3v-2c-0.99-0.33-1.98-0.66-3-1-1.2-6.24-1.2-6.24-0.438-9.12 2.2-2.86 4.59-2.94 8.06-3.62 1.78-0.364 1.78-0.364 3.6-0.734 1.37-0.255 1.37-0.255 2.77-0.516z" fill="#7AAAD8"/>
<path transform="translate(758 996)" d="m0 0c1.18 0.0219 1.18 0.0219 2.38 0.0442 1.3 0.0126 1.3 0.0126 2.63 0.0254 0.898 0.029 1.8 0.058 2.72 0.0879 0.894 0.00967 1.79 0.0193 2.71 0.0293 4.26 0.0728 8.18 0.405 12.4 1.28 3.1 0.263 6.2 0.413 9.31 0.562 0.836 0.0432 1.67 0.0864 2.53 0.131 2.05 0.105 4.1 0.207 6.15 0.307v2h-47c4-4 4-4 6.21-4.47z" fill="#EDF7FC"/>
<path transform="translate(989,614)" d="m0 0v3c-0.99 0.495-0.99 0.495-2 1-0.407 2.32-0.744 4.66-1 7h2v-6c0.66-0.33 1.32-0.66 2-1-0.33 2.97-0.66 5.94-1 9h2c-0.66 1.32-1.32 2.64-2 4-1.32-0.66-2.64-1.32-4-2-0.33 0.99-0.66 1.98-1 3h-2c-0.728-1.41-1.43-2.83-2.12-4.25-0.394-0.789-0.789-1.58-1.2-2.39-0.68-2.36-0.68-2.36 0.0898-4.55 2.58-3.78 6.02-5.29 10.2-6.8z" fill="#7CACD7"/>
<path transform="translate(778 772)" d="m0 0c0.776 0.0786 1.55 0.157 2.35 0.238 2.02 0.449 2.02 0.449 4.02 2.45-3.98 1.33-7.85 1.07-12 1 0.66 0.33 1.32 0.66 2 1v3h-2v-2c-1.42 0.312-2.83 0.624-4.25 0.938-1.18 0.261-1.18 0.261-2.39 0.527-0.779 0.177-1.56 0.353-2.36 0.535-0.737 0.146-1.47 0.291-2.23 0.441-0.583 0.184-1.17 0.369-1.77 0.559-0.33 0.66-0.66 1.32-1 2v-4c1.75-0.985 3.5-1.96 5.25-2.94 1.46-0.818 1.46-0.818 2.95-1.65 4.09-2.06 6.88-2.61 11.4-2.1z" fill="#D1E591"/>
<path transform="translate(387 310)" d="m0 0c3 1.2 4.68 3.1 6.91 5.43 1.2 1.24 1.2 1.24 2.42 2.5 0.603 0.638 1.21 1.28 1.83 1.93-0.33 0.66-0.66 1.32-1 2-0.784-0.619-1.57-1.24-2.38-1.88-4.15-2.81-8.75-3.39-13.6-4.12v-3c3.07-3.07 3.07-3.07 5.84-2.86z" fill="#D1E789"/>
<path transform="translate(486,418)" d="m0 0c2.38 0.0625 2.38 0.0625 5 1 2.31 2.56 2.31 2.56 4 5-3.04 2.02-4.19 2.32-7.69 2.62-0.808 0.0748-1.62 0.15-2.45 0.227-0.922 0.0735-0.922 0.0735-1.86 0.148 0.75-6.75 0.75-6.75 3-9z" fill="#FBFDFD"/>
<path transform="translate(680,974)" d="m0 0c1.26-0.0412 2.52-0.0825 3.81-0.125 0.708-0.0232 1.42-0.0464 2.14-0.0703 2.04 0.195 2.04 0.195 5.04 2.2 0.99-0.33 1.98-0.66 3-1 0.66 0.66 1.32 1.32 2 2 1.86 0.611 1.86 0.611 4 1 0.908 0.186 1.82 0.371 2.75 0.562 0.742 0.144 1.49 0.289 2.25 0.438-1.12 1.56-1.12 1.56-3 3-7.46-0.364-15.5-3.42-22-7v-1z" fill="#7DADDC"/>
<path transform="translate(303,462)" d="m0 0h2c1.3 3.89 0.317 5.12-1 9-0.529 2.9-0.997 5.8-1.44 8.71-0.186 0.757-0.371 1.51-0.562 2.29-0.66 0.33-1.32 0.66-2 1-1.27-8.15-1.24-13.8 3-21z" fill="#D1E594"/>
<path transform="translate(943,519)" d="m0 0c3.35 0.949 6.69 1.9 10 3v5c-4.46 0.495-4.46 0.495-9 1-0.33-2.97-0.66-5.94-1-9z" fill="#7EAAD5"/>
<path transform="translate(323,536)" d="m0 0c0.33 0.99 0.66 1.98 1 3-1.3 1.7-2.64 3.35-4 5-1.76 2.95-3.39 5.97-5 9-0.66-0.66-1.32-1.32-2-2 0-4.27 0.275-4.88 2.75-8.06 0.51-0.672 1.02-1.34 1.55-2.04 1.75-1.95 3.56-3.41 5.7-4.9z" fill="#D3E697"/>
<path transform="translate(313,549)" d="m0 0c1 2 1 2 0.441 3.88-0.29 0.701-0.58 1.4-0.879 2.12-1.23 2.91-1.23 2.91-1.56 6-1.38 1.62-1.38 1.62-3 3h-2c-0.875-2.5-0.875-2.5-1-6 1.98-3.54 4.31-7.15 8-9z" fill="#FAFCFA"/>
<path transform="translate(747,951)" d="m0 0v4h4v3c-3.63-0.33-7.26-0.66-11-1v-5c2.46-1.23 4.28-1.07 7-1z" fill="#7DACD6"/>
<path transform="translate(796,627)" d="m0 0c5.36 1.59 10.7 3.19 16 5v2c-2.1 0.054-4.21 0.0928-6.31 0.125-1.76 0.0348-1.76 0.0348-3.55 0.0703-3.14-0.195-3.14-0.195-6.14-2.2h3v-2c-1.32-0.33-2.64-0.66-4-1 0.33-0.66 0.66-1.32 1-2z" fill="#D1E590"/>
<path transform="translate(320,598)" d="m0 0c2.84 2.38 3.46 4.12 4 7.75 0.792 4.51 1.92 8.17 4 12.2 0.66 0.33 1.32 0.66 2 1-0.33 1.32-0.66 2.64-1 4-5.73-4.79-8.03-14.1-8.81-21.3-0.0619-1.22-0.124-2.43-0.188-3.69z" fill="#F9FBF8"/>
<path transform="translate(938,423)" d="m0 0v2h2c-0.438 4.56-0.85 7.58-4 11-0.133-0.626-0.266-1.25-0.402-1.9-0.177-0.817-0.353-1.63-0.535-2.48-0.261-1.22-0.261-1.22-0.527-2.46-0.458-2.19-0.458-2.19-1.54-4.16 3-2 3-2 5-2z" fill="#7CADDC"/>
<path transform="translate(1107,425)" d="m0 0c1.65 0.99 3.3 1.98 5 3-0.25 2.38-0.25 2.38-1 5-2.06 1.31-2.06 1.31-4 2-1.37-2.74-1.13-4.97-1-8 0.33-0.66 0.66-1.32 1-2z" fill="#76A5D2"/>
<path transform="translate(1058,693)" d="m0 0h2v2h4c0.33 1.65 0.66 3.3 1 5h3v2c-1.65 0.33-3.3 0.66-5 1v-6c-3.55 1.4-3.55 1.4-7 3 0.576-2.39 1.22-4.67 2-7z" fill="#7DACD6"/>
<path transform="translate(555,783)" d="m0 0h6c0.33 0.99 0.66 1.98 1 3-0.33 0.66-0.66 1.32-1 2h10c-0.33 0.66-0.66 1.32-1 2-2.15-0.113-4.29-0.241-6.44-0.375-1.19-0.0696-2.39-0.139-3.62-0.211-0.971-0.137-1.94-0.273-2.94-0.414-0.33-0.66-0.66-1.32-1-2h3l-4-4z" fill="#D2E595"/>
<path transform="translate(486,418)" d="m0 0c1.65 0.33 3.3 0.66 5 1 0 3 0 3-1.5 4.69-0.495 0.433-0.99 0.866-1.5 1.31-0.99-0.33-1.98-0.66-3-1 0.33-0.66 0.66-1.32 1-2h-2c0.66-1.32 1.32-2.64 2-4z" fill="#FBD293"/>
<path transform="translate(690,971)" d="m0 0c1.95 0.172 1.95 0.172 4.25 0.75 1.2 0.298 1.2 0.298 2.42 0.602 2.82 0.783 5.58 1.66 8.33 2.65v2c-5.76-1.09-11.4-2.29-17-4l2-2z" fill="#7DAEDD"/>
<path transform="translate(359,344)" d="m0 0c0.33 1.32 0.66 2.64 1 4h-2v3l-4 2c-0.688-1.81-0.688-1.81-1-4 1.31-1.75 1.31-1.75 3-3h2c0.33-0.66 0.66-1.32 1-2z" fill="#D1E594"/>
</svg>
